<?xml version="1.0" encoding="UTF-8"?>
<svg width="60px" height="68px" viewBox="0 0 60 68" version="1.1" xmlns="http://www.w3.org/2000/svg" xmlns:xlink="http://www.w3.org/1999/xlink">
    <!-- Generator: Sketch 53.2 (72643) - https://sketchapp.com -->
    <title>Group Copy</title>
    <desc>Created with Sketch.</desc>
    <g id="Compliance" stroke="none" stroke-width="1" fill="none" fill-rule="evenodd">
        <g id="Compliance-Copy" transform="translate(-612.000000, -1140.000000)" fill="#00a7b5" fill-rule="nonzero">
            <g id="Group-2" transform="translate(-8.000000, 975.000000)">
                <g id="Código-de-conducta-" transform="translate(171.000000, 165.000000)">
                    <g id="Group-Copy" transform="translate(449.000000, 0.000000)">
                        <path d="M60,26.9166667 C60.0008578,25.8047723 59.5533559,24.7386976 58.7571429,23.9558333 L58.7571429,23.9558333 C57.0924271,22.345212 54.4361444,22.345212 52.7714286,23.9558333 L51.4285714,25.2875 L51.4285714,4.25 C51.4285714,1.90278981 49.5097918,-2.63492909e-14 47.1428571,-2.64930188e-14 L12.8571429,-2.64930188e-14 C12.4774243,-0.00217707497 12.1124555,0.145652438 11.8428571,0.410833333 L0.414285714,11.7441667 C0.146876408,12.0115183 -0.00219536971,12.3734458 -1.87167735e-13,12.75 L-1.87167735e-13,29.75 L2.85714286,29.75 L2.85714286,14.1666667 L10,14.1666667 C12.3669346,14.1666667 14.2857143,12.2638769 14.2857143,9.91666667 L14.2857143,2.83333333 L47.1428571,2.83333333 C47.9318354,2.83333333 48.5714286,3.4675966 48.5714286,4.25 L48.5714286,28.0641667 L30.9714286,45.5175 C30.8207494,45.6743333 30.7083447,45.8633442 30.6428571,46.07 L30.6428571,46.07 L28.6571429,51.9633333 C28.4838976,52.4717649 28.6152409,53.0336259 28.9963998,53.4146084 C29.3775587,53.7955908 29.9430853,53.930277 30.4571429,53.7625 L36.4,51.7933333 L36.4,51.7933333 C36.6083924,51.7283915 36.7989916,51.6169235 36.9571429,51.4675 L48.5714286,39.9358333 L48.5714286,63.75 C48.5714286,64.5324034 47.9318354,65.1666667 47.1428571,65.1666667 L4.28571429,65.1666667 C3.49673607,65.1666667 2.85714286,64.5324034 2.85714286,63.75 L2.85714286,41.0833333 L-1.87167735e-13,41.0833333 L-1.87167735e-13,63.75 C-1.87167735e-13,66.0972102 1.91877964,68 4.28571429,68 L47.1428571,68 C49.5097918,68 51.4285714,66.0972102 51.4285714,63.75 L51.4285714,37.1025 L58.7571429,29.835 C59.5428781,29.062535 59.9895075,28.0138116 60,26.9166667 Z M10,11.3333333 L4.87142857,11.3333333 L11.4285714,4.83083333 L11.4285714,9.91666667 C11.4285714,10.6990701 10.7889782,11.3333333 10,11.3333333 Z M32.6,49.1441667 L33.3,49.8383333 L32.2571429,50.1783333 L32.6,49.1441667 Z M56.7285714,27.8941667 L35.9428571,48.45 L34,46.5233333 L54.8,25.8966667 C55.3479331,25.392734 56.1949241,25.392734 56.7428571,25.8966667 L56.7428571,25.8966667 C57.2510246,26.4400336 57.2510246,27.2799664 56.7428571,27.8233333 L56.7285714,27.8941667 Z" id="Shape"></path>
                        <rect id="Rectangle" x="12.8571429" y="45.3333333" width="14.2857143" height="2.83333333"></rect>
                        <rect id="Rectangle" x="7.14285714" y="51" width="20" height="2.83333333"></rect>
                        <rect id="Rectangle" x="7.14285714" y="56.6666667" width="37.1428571" height="2.83333333"></rect>
                        <rect id="Rectangle" x="7.14285714" y="45.3333333" width="2.85714286" height="2.83333333"></rect>
                        <rect id="Rectangle" x="0" y="32.5833333" width="2.85714286" height="5.66666667"></rect>
                        <path d="M38.9490845,23.6395273 L35.5900385,16.3299913 C35.4903535,16.1094959 35.2685826,15.9924983 35.0680927,16.0003731 L14.931177,16.0003731 C14.6830847,16.0020606 14.4971555,16.1353703 14.4097912,16.3299913 L11.0507451,23.6395273 C11.0266639,23.6879013 10.9925023,23.8487729 11.0014627,23.9185215 C11.0580255,29.0697897 18.7813674,29.0737271 18.8373701,23.9185215 C18.8463306,23.8504604 18.813849,23.6907137 18.7880877,23.6395273 L15.7947397,17.1253498 L24.4398872,17.1253498 L24.4398872,30.334826 L20.7543449,32.9790837 C20.310243,33.2991395 20.5381742,34 21.079721,34 L28.9201087,34 C29.4633355,34 29.6890267,33.298577 29.2454848,32.9796462 L25.5599425,30.334826 L25.5599425,17.1253498 L34.20565,17.1253498 C25.2104853,36.6982566 40.2029865,4.07674531 31.2083818,23.6502146 C31.17198,23.7385252 31.1562992,23.871835 31.1624595,23.9185215 C31.2190223,29.0697897 38.9423642,29.0737271 38.998367,23.9185215 C39.0078875,23.8493354 38.9737258,23.6895887 38.9490845,23.6395273 Z M12.1758408,24.4376982 L17.6629921,24.4376982 C17.0559221,27.4261988 12.7823508,27.4250738 12.1758408,24.4376982 Z M17.4042593,23.3127215 L12.4345736,23.3127215 L14.9194164,17.9049586 L17.4042593,23.3127215 Z M27.1722623,32.8750233 L22.8270074,32.8750233 L24.9999148,31.3163681 L27.1722623,32.8750233 Z M35.0804133,17.9049586 L37.5658162,23.3127215 L32.5955704,23.3127215 L35.0804133,17.9049586 Z M32.3373976,24.4376982 L37.8239889,24.4376982 C37.2163589,27.4261988 32.9439076,27.4250738 32.3373976,24.4376982 Z" id="Shape" stroke="#00a7b5"></path>
                    </g>
                </g>
            </g>
        </g>
    </g>
</svg>