<?xml version="1.0" encoding="UTF-8"?>
<svg width="60px" height="68px" viewBox="0 0 60 68" version="1.1" xmlns="http://www.w3.org/2000/svg" xmlns:xlink="http://www.w3.org/1999/xlink">
    <!-- Generator: Sketch 53.2 (72643) - https://sketchapp.com -->
    <title>Group</title>
    <desc>Created with Sketch.</desc>
    <g id="Compliance" stroke="none" stroke-width="1" fill="none" fill-rule="evenodd">
        <g id="Compliance-Copy" transform="translate(-285.000000, -1140.000000)" fill="#00a7b5" fill-rule="nonzero">
            <g id="Group-2" transform="translate(-8.000000, 975.000000)">
                <g id="Código-de-conducta-" transform="translate(171.000000, 165.000000)">
                    <g id="Group" transform="translate(122.000000, 0.000000)">
                        <path d="M60,26.9166667 C60.0008578,25.8047723 59.5533559,24.7386976 58.7571429,23.9558333 L58.7571429,23.9558333 C57.0924271,22.345212 54.4361444,22.345212 52.7714286,23.9558333 L51.4285714,25.2875 L51.4285714,4.25 C51.4285714,1.90278981 49.5097918,-2.63492909e-14 47.1428571,-2.64930188e-14 L12.8571429,-2.64930188e-14 C12.4774243,-0.00217707497 12.1124555,0.145652438 11.8428571,0.410833333 L0.414285714,11.7441667 C0.146876408,12.0115183 -0.00219536971,12.3734458 -1.87167735e-13,12.75 L-1.87167735e-13,29.75 L2.85714286,29.75 L2.85714286,14.1666667 L10,14.1666667 C12.3669346,14.1666667 14.2857143,12.2638769 14.2857143,9.91666667 L14.2857143,2.83333333 L47.1428571,2.83333333 C47.9318354,2.83333333 48.5714286,3.4675966 48.5714286,4.25 L48.5714286,28.0641667 L30.9714286,45.5175 C30.8207494,45.6743333 30.7083447,45.8633442 30.6428571,46.07 L30.6428571,46.07 L28.6571429,51.9633333 C28.4838976,52.4717649 28.6152409,53.0336259 28.9963998,53.4146084 C29.3775587,53.7955908 29.9430853,53.930277 30.4571429,53.7625 L36.4,51.7933333 L36.4,51.7933333 C36.6083924,51.7283915 36.7989916,51.6169235 36.9571429,51.4675 L48.5714286,39.9358333 L48.5714286,63.75 C48.5714286,64.5324034 47.9318354,65.1666667 47.1428571,65.1666667 L4.28571429,65.1666667 C3.49673607,65.1666667 2.85714286,64.5324034 2.85714286,63.75 L2.85714286,41.0833333 L-1.87167735e-13,41.0833333 L-1.87167735e-13,63.75 C-1.87167735e-13,66.0972102 1.91877964,68 4.28571429,68 L47.1428571,68 C49.5097918,68 51.4285714,66.0972102 51.4285714,63.75 L51.4285714,37.1025 L58.7571429,29.835 C59.5428781,29.062535 59.9895075,28.0138116 60,26.9166667 Z M10,11.3333333 L4.87142857,11.3333333 L11.4285714,4.83083333 L11.4285714,9.91666667 C11.4285714,10.6990701 10.7889782,11.3333333 10,11.3333333 Z M32.6,49.1441667 L33.3,49.8383333 L32.2571429,50.1783333 L32.6,49.1441667 Z M56.7285714,27.8941667 L35.9428571,48.45 L34,46.5233333 L54.8,25.8966667 C55.3479331,25.392734 56.1949241,25.392734 56.7428571,25.8966667 L56.7428571,25.8966667 C57.2510246,26.4400336 57.2510246,27.2799664 56.7428571,27.8233333 L56.7285714,27.8941667 Z" id="Shape"></path>
                        <g id="noun_Law_1800020" transform="translate(10.000000, 12.000000)" stroke="#00a7b5" stroke-width="0.5">
                            <g id="Group">
                                <path d="M14.2241379,22 L0.775862069,22 C0.332512315,22 0,22.3448276 0,22.7241379 L0,25.2758621 C0,25.6896552 0.369458128,26 0.775862069,26 L14.2241379,26 C14.6674877,26 15,25.6551724 15,25.2758621 L15,22.7241379 C15,22.3448276 14.6674877,22 14.2241379,22 Z M13.4482759,24.5862069 L1.55172414,24.5862069 L1.55172414,23.4827586 L13.4482759,23.4827586 L13.4482759,24.5862069 Z" id="Shape"></path>
                                <path d="M25.1975404,19.3027523 L15.272867,9.35779817 L16.2321291,8.40366972 C16.5272867,8.66055046 16.8962337,8.80733945 17.3020753,8.80733945 C17.7448117,8.80733945 18.1506533,8.62385321 18.4827056,8.33027523 L19.1837048,7.63302752 C19.8109147,6.97247706 19.8109147,5.94495413 19.1837048,5.28440367 L14.3873943,0.47706422 C14.055342,0.146788991 13.6495004,0 13.206764,0 C12.7640277,0 12.358186,0.183486239 12.0261337,0.47706422 L11.3251345,1.17431193 C10.6979247,1.79816514 10.6979247,2.82568807 11.2882398,3.44954128 L5.45887779,9.28440367 C5.16372022,8.99082569 4.75787855,8.8440367 4.35203689,8.8440367 C4.35203689,8.8440367 4.35203689,8.8440367 4.35203689,8.8440367 C3.90930054,8.8440367 3.50345888,9.02752294 3.17140661,9.32110092 L2.47040738,10.0183486 C1.84319754,10.6788991 1.84319754,11.706422 2.47040738,12.3669725 L7.26671791,17.1743119 C7.59877018,17.5045872 8.00461184,17.6513761 8.44734819,17.6513761 C8.44734819,17.6513761 8.44734819,17.6513761 8.44734819,17.6513761 C8.89008455,17.6513761 9.29592621,17.4678899 9.62797848,17.1743119 L10.3289777,16.4770642 C10.9561875,15.853211 10.9561875,14.8623853 10.4027671,14.2385321 L11.3620292,13.2844037 L21.2867025,23.1926606 C21.8032283,23.706422 22.5042275,24 23.2421214,24 C23.2421214,24 23.2421214,24 23.2421214,24 C23.9800154,24 24.6810146,23.706422 25.1975404,23.1926606 C26.2674865,22.1284404 26.2674865,20.3669725 25.1975404,19.3027523 Z M6.56571868,10.3853211 L12.3950807,4.55045872 L15.1252882,7.26605505 L9.29592621,13.1376147 L6.56571868,10.3853211 Z M12.4319754,2.27522936 L13.1329746,1.57798165 C13.1329746,1.57798165 13.1698693,1.5412844 13.206764,1.5412844 C13.2436587,1.5412844 13.2436587,1.5412844 13.2805534,1.57798165 L18.076864,6.3853211 C18.1137586,6.42201835 18.1137586,6.49541284 18.076864,6.53211009 L17.3758647,7.2293578 C17.33897,7.26605505 17.2651806,7.26605505 17.2282859,7.2293578 L17.2282859,7.2293578 L12.4319754,2.42201835 C12.3950807,2.3853211 12.3950807,2.31192661 12.4319754,2.27522936 Z M9.22213682,15.412844 L8.52113759,16.0733945 C8.48424289,16.1100917 8.4104535,16.1100917 8.3735588,16.0733945 L3.57724827,11.266055 C3.54035357,11.2293578 3.54035357,11.1559633 3.57724827,11.1192661 L4.2782475,10.4220183 C4.3151422,10.3853211 4.38893159,10.3853211 4.42582629,10.4220183 L4.94235204,10.9357798 C4.94235204,10.9357798 4.94235204,10.9357798 4.94235204,10.9357798 L8.77940046,14.7889908 C8.77940046,14.7889908 8.77940046,14.7889908 8.77940046,14.7889908 L9.25903151,15.266055 C9.25903151,15.3027523 9.25903151,15.3761468 9.22213682,15.412844 Z M14.2398155,10.5321101 L22.6518063,18.9357798 L20.9177556,20.6605505 L12.5426595,12.2568807 L14.2398155,10.5321101 Z M24.0906995,22.1284404 C23.6479631,22.5688073 22.8362798,22.5688073 22.3935434,22.1284404 L21.9508071,21.6880734 L23.6848578,19.9633028 L24.1275942,20.4036697 C24.5703305,20.8807339 24.5703305,21.6513761 24.0906995,22.1284404 Z" id="Shape"></path>
                            </g>
                        </g>
                        <rect id="Rectangle" x="12.8571429" y="45.3333333" width="14.2857143" height="2.83333333"></rect>
                        <rect id="Rectangle" x="7.14285714" y="51" width="20" height="2.83333333"></rect>
                        <rect id="Rectangle" x="7.14285714" y="56.6666667" width="37.1428571" height="2.83333333"></rect>
                        <rect id="Rectangle" x="7.14285714" y="45.3333333" width="2.85714286" height="2.83333333"></rect>
                        <rect id="Rectangle" x="0" y="32.5833333" width="2.85714286" height="5.66666667"></rect>
                    </g>
                </g>
            </g>
        </g>
    </g>
</svg>