<?xml version="1.0" encoding="UTF-8"?>
<svg width="60px" height="68px" viewBox="0 0 60 68" version="1.1" xmlns="http://www.w3.org/2000/svg" xmlns:xlink="http://www.w3.org/1999/xlink">
    <!-- Generator: Sketch 53.2 (72643) - https://sketchapp.com -->
    <title>Group Copy 2</title>
    <desc>Created with Sketch.</desc>
    <g id="Compliance" stroke="none" stroke-width="1" fill="none" fill-rule="evenodd">
        <g id="Compliance-Copy" transform="translate(-940.000000, -1140.000000)" fill="#00a7b5" fill-rule="nonzero">
            <g id="Group-2" transform="translate(-8.000000, 975.000000)">
                <g id="Código-de-conducta-" transform="translate(171.000000, 165.000000)">
                    <g id="Group-Copy-2" transform="translate(777.000000, 0.000000)">
                        <path d="M11.4285714,29.41 C11.3343703,29.7753257 11.3909263,30.1628198 11.5857143,30.4866667 L15.8714286,37.57 C16.2787005,38.2376801 17.153758,38.453038 17.8285714,38.0516667 L20,36.8333333 L20,39.6666667 C20,40.4490701 20.6395932,41.0833333 21.4285714,41.0833333 L30,41.0833333 C30.7889782,41.0833333 31.4285714,40.4490701 31.4285714,39.6666667 L31.4285714,36.8333333 L33.5428571,38.0941667 C34.2176706,38.495538 35.0927281,38.2801801 35.5,37.6125 L39.7857143,30.5291667 C40.1904585,29.8599767 39.9732909,28.9922113 39.3,28.5883333 L36.5714286,26.9166667 L39.3,25.2875 C39.9732909,24.883622 40.1904585,24.0158567 39.7857143,23.3466667 L35.5,16.2633333 C35.0927281,15.5956532 34.2176706,15.3802954 33.5428571,15.7816667 L31.4285714,17 L31.4285714,14.1666667 C31.4285714,13.3842633 30.7889782,12.75 30,12.75 L21.4285714,12.75 C20.6395932,12.75 20,13.3842633 20,14.1666667 L20,17 L17.8857143,15.7391667 C17.2109008,15.3377954 16.3358433,15.5531532 15.9285714,16.2208333 L11.6428571,23.3041667 C11.238113,23.9733567 11.4552805,24.841122 12.1285714,25.245 L14.8571429,26.9166667 L12.1285714,28.5458333 C11.786567,28.7276531 11.5338649,29.0396199 11.4285714,29.41 Z M18.3142857,28.135 C18.7412276,27.8781827 19.00196,27.418936 19.00196,26.92375 C19.00196,26.428564 18.7412276,25.9693173 18.3142857,25.7125 L14.7714286,23.6016667 L17.6285714,18.955 L20.6857143,20.7683333 C21.1280106,21.035363 21.6813921,21.0441403 22.1320738,20.7912743 C22.5827554,20.5384083 22.860169,20.063493 22.8571429,19.55 L22.8571429,15.5833333 L28.5714286,15.5833333 L28.5714286,19.55 C28.5715181,20.0590152 28.8469755,20.5288551 29.2930014,20.7807662 C29.7390274,21.0326773 30.2870502,21.0279311 30.7285714,20.7683333 L33.7857143,18.955 L36.6428571,23.6016667 L33.1,25.7125 C32.6730581,25.9693173 32.4123257,26.428564 32.4123257,26.92375 C32.4123257,27.418936 32.6730581,27.8781827 33.1,28.135 L36.6428571,30.2458333 L33.7857143,34.8925 L30.7285714,33.0791667 C30.289242,32.8208224 29.7442514,32.8147311 29.2991619,33.0631902 C28.8540724,33.3116494 28.5766097,33.7768531 28.5714286,34.2833333 L28.5714286,38.25 L22.8571429,38.25 L22.8571429,34.2833333 C22.8570533,33.7743181 22.5815959,33.3044783 22.13557,33.0525672 C21.6895441,32.800656 21.1415212,32.8054022 20.7,33.065 L17.6428571,34.8783333 L14.7857143,30.2316667 L18.3142857,28.135 Z" id="Shape"></path>
                        <path d="M24.2857143,33.7591667 L24.2857143,35.4166667 L27.1428571,35.4166667 L27.1428571,32.5833333 C27.1428571,31.8009299 26.5032639,31.1666667 25.7142857,31.1666667 C24.9253075,31.1666667 24.2857143,30.5324034 24.2857143,29.75 C24.2857143,28.9675966 24.9253075,28.3333333 25.7142857,28.3333333 C26.8603967,28.3649229 27.9690914,27.9273083 28.7798272,27.1233286 C29.590563,26.3193489 30.031855,25.2198934 30,24.0833333 C30.0856544,22.2558389 28.9085859,20.6041665 27.1428571,20.0741667 L27.1428571,18.4166667 L24.2857143,18.4166667 L24.2857143,21.25 C24.2857143,22.0324034 24.9253075,22.6666667 25.7142857,22.6666667 C26.1029836,22.6313984 26.4873798,22.7692836 26.7633789,23.0429826 C27.0393779,23.3166817 27.1784218,23.6978746 27.1428571,24.0833333 C27.1837812,24.470079 27.0464774,24.8544795 26.7691947,25.1294514 C26.4919121,25.4044234 26.1042813,25.540583 25.7142857,25.5 C24.5681748,25.4684104 23.4594801,25.9060251 22.6487443,26.7100047 C21.8380085,27.5139844 21.3967164,28.61344 21.4285714,29.75 C21.3429171,31.5774945 22.5199856,33.2291668 24.2857143,33.7591667 L24.2857143,33.7591667 Z" id="Path"></path>
                        <path d="M60,26.9166667 C60.0008578,25.8047723 59.5533559,24.7386976 58.7571429,23.9558333 L58.7571429,23.9558333 C57.0924271,22.345212 54.4361444,22.345212 52.7714286,23.9558333 L51.4285714,25.2875 L51.4285714,4.25 C51.4285714,1.90278981 49.5097918,1.4370761e-16 47.1428571,-2.03287907e-20 L12.8571429,-2.03287907e-20 C12.4774243,-0.00217707497 12.1124555,0.145652438 11.8428571,0.410833333 L0.414285714,11.7441667 C0.146876408,12.0115183 -0.00219536971,12.3734458 2.37914614e-16,12.75 L2.37914614e-16,29.75 L2.85714286,29.75 L2.85714286,14.1666667 L10,14.1666667 C12.3669346,14.1666667 14.2857143,12.2638769 14.2857143,9.91666667 L14.2857143,2.83333333 L47.1428571,2.83333333 C47.9318354,2.83333333 48.5714286,3.4675966 48.5714286,4.25 L48.5714286,28.0641667 L30.9714286,45.5175 C30.8207494,45.6743333 30.7083447,45.8633442 30.6428571,46.07 L30.6428571,46.07 L28.6571429,51.9633333 C28.4838976,52.4717649 28.6152409,53.0336259 28.9963998,53.4146084 C29.3775587,53.7955908 29.9430853,53.930277 30.4571429,53.7625 L36.4,51.7933333 L36.4,51.7933333 C36.6083924,51.7283915 36.7989916,51.6169235 36.9571429,51.4675 L48.5714286,39.9358333 L48.5714286,63.75 C48.5714286,64.5324034 47.9318354,65.1666667 47.1428571,65.1666667 L4.28571429,65.1666667 C3.49673607,65.1666667 2.85714286,64.5324034 2.85714286,63.75 L2.85714286,41.0833333 L2.37914614e-16,41.0833333 L2.37914614e-16,63.75 C2.37914614e-16,66.0972102 1.91877964,68 4.28571429,68 L47.1428571,68 C49.5097918,68 51.4285714,66.0972102 51.4285714,63.75 L51.4285714,37.1025 L58.7571429,29.835 C59.5428781,29.062535 59.9895075,28.0138116 60,26.9166667 Z M10,11.3333333 L4.87142857,11.3333333 L11.4285714,4.83083333 L11.4285714,9.91666667 C11.4285714,10.6990701 10.7889782,11.3333333 10,11.3333333 Z M32.6,49.1441667 L33.3,49.8383333 L32.2571429,50.1783333 L32.6,49.1441667 Z M56.7285714,27.8941667 L35.9428571,48.45 L34,46.5233333 L54.8,25.8966667 C55.3479331,25.392734 56.1949241,25.392734 56.7428571,25.8966667 L56.7428571,25.8966667 C57.2510246,26.4400336 57.2510246,27.2799664 56.7428571,27.8233333 L56.7285714,27.8941667 Z" id="Shape"></path>
                        <rect id="Rectangle" x="12.8571429" y="45.3333333" width="14.2857143" height="2.83333333"></rect>
                        <rect id="Rectangle" x="7.14285714" y="51" width="20" height="2.83333333"></rect>
                        <rect id="Rectangle" x="7.14285714" y="56.6666667" width="37.1428571" height="2.83333333"></rect>
                        <rect id="Rectangle" x="7.14285714" y="45.3333333" width="2.85714286" height="2.83333333"></rect>
                        <rect id="Rectangle" x="0" y="32.5833333" width="2.85714286" height="5.66666667"></rect>
                    </g>
                </g>
            </g>
        </g>
    </g>
</svg>