<?xml version="1.0" encoding="UTF-8"?>
<svg width="31px" height="15px" viewBox="0 0 31 15" version="1.1" xmlns="http://www.w3.org/2000/svg" xmlns:xlink="http://www.w3.org/1999/xlink">
    <!-- Generator: Sketch 52.4 (67378) - http://www.bohemiancoding.com/sketch -->
    <title>ico_CTA_Vademecum_Hoover</title>
    <desc>Created with Sketch.</desc>
    <g id="Design" stroke="none" stroke-width="1" fill="none" fill-rule="evenodd">
        <g id="Menarini_HOME" transform="translate(-503.000000, -1808.000000)" fill="#8A8C8C">
            <g id="Group-10" transform="translate(170.000000, 1787.000000)">
                <g id="Group-3-Copy-2">
                    <path d="M357.0932,21.2595792 C356.761971,20.9134736 356.210696,20.9134736 355.867886,21.2595792 C355.536658,21.5939921 355.536658,22.1505673 355.867886,22.4842006 L360.53674,27.1979408 L333.857797,27.1979408 C333.37987,27.1987203 333,27.5822428 333,28.0647639 C333,28.547285 333.37987,28.9432797 333.857797,28.9432797 L360.53674,28.9432797 L355.867886,33.6453271 C355.536658,33.9914327 355.536658,34.5487875 355.867886,34.8824208 C356.210696,35.2285264 356.762743,35.2285264 357.0932,34.8824208 L363.232893,28.6837005 C363.575702,28.3492876 363.575702,27.7927124 363.232893,27.459079 L357.0932,21.2595792 Z" id="ico_CTA_Vademecum_Hoover"></path>
                </g>
            </g>
        </g>
    </g>
</svg>