<?xml version="1.0" encoding="UTF-8"?>
<svg width="31px" height="15px" viewBox="0 0 31 15" version="1.1" xmlns="http://www.w3.org/2000/svg" xmlns:xlink="http://www.w3.org/1999/xlink">
    <!-- Generator: Sketch 52.4 (67378) - http://www.bohemiancoding.com/sketch -->
    <title>ico_CTA_Vademecum_ON</title>
    <desc>Created with Sketch.</desc>
    <g id="Design" stroke="none" stroke-width="1" fill="none" fill-rule="evenodd">
        <g id="Menarini_HOME" transform="translate(-503.000000, -1724.000000)" fill="#F7323F">
            <g id="Group-11" transform="translate(171.000000, 1703.000000)">
                <g id="Group-3">
                    <path d="M356.0932,21.2595792 C355.761971,20.9134736 355.210696,20.9134736 354.867886,21.2595792 C354.536658,21.5939921 354.536658,22.1505673 354.867886,22.4842006 L359.53674,27.1979408 L332.857797,27.1979408 C332.37987,27.1987203 332,27.5822428 332,28.0647639 C332,28.547285 332.37987,28.9432797 332.857797,28.9432797 L359.53674,28.9432797 L354.867886,33.6453271 C354.536658,33.9914327 354.536658,34.5487875 354.867886,34.8824208 C355.210696,35.2285264 355.762743,35.2285264 356.0932,34.8824208 L362.232893,28.6837005 C362.575702,28.3492876 362.575702,27.7927124 362.232893,27.459079 L356.0932,21.2595792 Z" id="ico_CTA_Vademecum_ON"></path>
                </g>
            </g>
        </g>
    </g>
</svg>