<?xml version="1.0" encoding="UTF-8"?>
<svg width="26px" height="35px" viewBox="0 0 26 35" version="1.1" xmlns="http://www.w3.org/2000/svg" xmlns:xlink="http://www.w3.org/1999/xlink">
    <!-- Generator: Sketch 52.4 (67378) - http://www.bohemiancoding.com/sketch -->
    <title>Group</title>
    <desc>Created with Sketch.</desc>
    <g id="Quienes-somos" stroke="none" stroke-width="1" fill="none" fill-rule="evenodd">
        <g id="Quienes_Somos" transform="translate(-186.000000, -3604.000000)" fill="#F7323F" fill-rule="nonzero">
            <g id="Enlace-de-interés" transform="translate(-4.000000, 3516.000000)">
                <g id="CTA" transform="translate(175.000000, 77.000000)">
                    <g id="Group" transform="translate(15.000000, 11.000000)">
                        <path d="M25.2349426,0.139284615 L7.45339771,0.523938462 C5.67934714,0.6949 3.906838,1.32520769 2.596516,2.18259231 C1.48408371,2.98366923 0.06019,4.17924615 0.0347657143,5.52393846 L0,33.9854615 C2.22857143e-05,34.3882308 0.353429143,34.7546538 0.741865429,34.7546923 C7.07861514,34.7546923 19.3232186,34.7547308 25.2581346,34.7546923 C25.6465709,34.7546538 25.9999777,34.3882308 26,33.9854615 L26,0.908553846 C25.841088,0.489130769 25.6038194,0.140592308 25.2349426,0.139284615 Z M24.5162617,1.68978462 L24.5162617,33.2162479 C18.5925109,33.2162692 7.76214771,33.2162308 1.483716,33.2162479 L1.51848171,7.61528462 C2.74977114,8.25616923 4.076046,8.62501538 5.44804371,8.18016923 C5.93791714,8.02486154 6.11594286,7.26516923 5.74942457,6.89409231 C5.67521686,6.81713077 5.52240743,6.48851538 5.49440914,6.00466923 C5.44644286,4.12913077 6.82410857,2.25363077 8.276398,2.0504 C13.6896871,1.93020769 19.1029726,1.80997692 24.5162617,1.68978462 Z M4.89165114,2.66332308 C4.28415743,3.68832308 3.95542086,4.97270769 4.01068943,6.08882308 C4.02562086,6.34720769 4.08182171,6.59305385 4.13819714,6.83397692 C3.32506571,6.81243846 2.45787657,6.42443846 1.51848914,5.84843846 C1.605318,4.72932308 2.66532314,3.96132308 3.39633171,3.46859231 C3.85390943,3.16359231 4.36130314,2.8889 4.89165114,2.66332308 Z M7.80114771,6.67774615 L7.80114771,8.21624615 L18.1872377,8.21624615 L18.1872377,6.67774615 L7.80114771,6.67774615 Z M4.83369343,12.0624 L4.83369343,13.6008231 L21.154692,13.6008231 L21.154692,12.0624 L4.83369343,12.0624 Z M4.83369343,15.9085538 L4.83369343,17.4469615 L21.154692,17.4469615 L21.154692,15.9085538 L4.83369343,15.9085538 Z M4.83369343,19.7546923 L4.83369343,21.2931538 L21.154692,21.2931538 L21.154692,19.7546923 L4.83369343,19.7546923 Z M4.83369343,23.6008462 L4.83369343,25.1393077 L21.154692,25.1393077 L21.154692,23.6008462 L4.83369343,23.6008462 Z M4.83369343,27.447 L4.83369343,28.9854615 L21.154692,28.9854615 L21.154692,27.447 L4.83369343,27.447 Z" id="Shape"></path>
                    </g>
                </g>
            </g>
        </g>
    </g>
</svg>