<?xml version="1.0" encoding="UTF-8"?>
<svg width="34px" height="38px" viewBox="0 0 34 38" version="1.1" xmlns="http://www.w3.org/2000/svg" xmlns:xlink="http://www.w3.org/1999/xlink">
    <!-- Generator: Sketch 52.4 (67378) - http://www.bohemiancoding.com/sketch -->
    <title>flask</title>
    <desc>Created with Sketch.</desc>
    <g id="Quienes-somos" stroke="none" stroke-width="1" fill="none" fill-rule="evenodd">
        <g id="Quienes_Somos" transform="translate(-660.000000, -1545.000000)" fill="#00a7b5" fill-rule="nonzero">
            <g id="Menarini-España" transform="translate(167.000000, 425.000000)">
                <g id="Valores" transform="translate(4.000000, 1059.000000)">
                    <g id="Group-6" transform="translate(489.000000, 61.000000)">
                        <g id="flask">
                            <path d="M33.495747,33.1399089 L20.8071882,13.1163086 L20.8071882,3.8 L22.0782162,3.8 C22.4291764,3.8 22.7137303,3.51642255 22.7137303,3.16666667 L22.7137303,0.633333333 C22.7137303,0.283577454 22.4291764,0 22.0782162,0 L11.9099919,0 C11.5590318,0 11.2744779,0.283577454 11.2744779,0.633333333 L11.2744779,3.16666667 C11.2744779,3.51642255 11.5590318,3.8 11.9099919,3.8 L13.18102,3.8 L13.18102,13.1163086 L0.493081902,33.1392903 C-0.126916598,34.1146484 -0.164774407,35.3488444 0.393782836,36.3603841 C0.952650449,37.3719238 2.01949474,38.0003092 3.17819067,38 L30.8103278,38 C31.9687135,38.0003092 33.0355578,37.372233 33.5944254,36.3610026 C34.153293,35.3494629 34.1154352,34.115267 33.495747,33.1399089 Z M12.545506,1.26666667 L21.4427022,1.26666667 L21.4427022,2.53333333 L12.545506,2.53333333 L12.545506,1.26666667 Z M14.3543005,13.6383138 C14.417914,13.5368816 14.4517377,13.4196778 14.452048,13.3 L14.452048,3.8 L19.5361602,3.8 L19.5361602,13.3 C19.5364705,13.4196778 19.5702943,13.5368816 19.6339077,13.6383138 L25.4401103,22.8 L8.548098,22.8 L14.3543005,13.6383138 Z M32.4822758,35.7490071 C32.1505549,36.3600748 31.5072832,36.7388997 30.8103278,36.7333333 L3.17819067,36.7333333 C2.48278693,36.7333333 1.84261824,36.3563639 1.5074839,35.7493164 C1.17234955,35.1422689 1.1953125,34.4013184 1.567684,33.8162272 L7.7453271,24.0666667 L26.2428811,24.0666667 L32.4211449,33.8199382 C32.7975504,34.4025554 32.8208236,35.1441243 32.4822758,35.7490071 Z" id="Shape"></path>
                            <path d="M23.3492443,25.3333333 C21.5944437,25.3333333 20.1716742,26.7512207 20.1716742,28.5 C20.1716742,30.2487793 21.5944437,31.6666667 23.3492443,31.6666667 C25.104045,31.6666667 26.5268144,30.2487793 26.5268144,28.5 C26.5246423,26.7518392 25.1034243,25.3354981 23.3492443,25.3333333 Z M23.3492443,30.4 C22.2963639,30.4 21.4427022,29.5492676 21.4427022,28.5 C21.4427022,27.4507324 22.2963639,26.6 23.3492443,26.6 C24.4021247,26.6 25.2557863,27.4507324 25.2557863,28.5 C25.2557863,29.5492676 24.4021247,30.4 23.3492443,30.4 Z" id="Shape"></path>
                            <path d="M16.9941041,30.4 C15.5902636,30.4 14.452048,31.5343099 14.452048,32.9333333 C14.452048,34.3323568 15.5902636,35.4666667 16.9941041,35.4666667 C18.3979446,35.4666667 19.5361602,34.3323568 19.5361602,32.9333333 C19.5361602,31.5343099 18.3979446,30.4 16.9941041,30.4 Z M16.9941041,34.2 C16.2921839,34.2 15.7230761,33.6328451 15.7230761,32.9333333 C15.7230761,32.2338216 16.2921839,31.6666667 16.9941041,31.6666667 C17.6960244,31.6666667 18.2651321,32.2338216 18.2651321,32.9333333 C18.2651321,33.6328451 17.6960244,34.2 16.9941041,34.2 Z" id="Shape"></path>
                        </g>
                    </g>
                </g>
            </g>
        </g>
    </g>
</svg>