<?xml version="1.0" encoding="UTF-8"?>
<svg width="37px" height="38px" viewBox="0 0 37 38" version="1.1" xmlns="http://www.w3.org/2000/svg" xmlns:xlink="http://www.w3.org/1999/xlink">
    <!-- Generator: Sketch 52.4 (67378) - http://www.bohemiancoding.com/sketch -->
    <title>medicines</title>
    <desc>Created with Sketch.</desc>
    <g id="Quienes-somos" stroke="none" stroke-width="1" fill="none" fill-rule="evenodd">
        <g id="Quienes_Somos" transform="translate(-171.000000, -1691.000000)" fill="#00a7b5">
            <g id="Menarini-España" transform="translate(167.000000, 425.000000)">
                <g id="Valores" transform="translate(4.000000, 1059.000000)">
                    <g id="Group-2" transform="translate(0.000000, 207.000000)">
                        <g id="medicines">
                            <path d="M21.4198511,11.8417702 C21.7459234,11.8417702 22.0102766,11.5702723 22.0102766,11.2353872 C22.0102766,10.9005021 21.7459234,10.6290043 21.4198511,10.6290043 L21.3704915,10.6290043 L21.3704915,8.02608511 C21.3704915,7.13971489 20.6683574,6.4185234 19.805234,6.4185234 L2.20504255,6.4185234 C1.34199787,6.4185234 0.639785106,7.13963404 0.639785106,8.02608511 L0.639785106,10.6290043 L0.590425532,10.6290043 C0.264353191,10.6290043 0,10.9005021 0,11.2353872 C0,11.5702723 0.264353191,11.8417702 0.590425532,11.8417702 L2.04287234,11.8417702 L2.04287234,13.2903787 L1.31845957,13.7164638 C0.579089362,14.1512809 0,15.232583 0,16.1782979 L0,35.3913404 C0,36.8297617 1.13944255,38 2.54008936,38 L19.470266,38 C20.8709128,38 22.0103553,36.8297617 22.0103553,35.3912596 L22.0103553,16.1782979 C22.0103553,15.2326638 21.431266,14.1512809 20.691817,13.7164638 L19.9674043,13.2904596 L19.9674043,11.8418511 L21.4198511,11.8418511 L21.4198511,11.8417702 Z M20.8294255,35.3912596 C20.8294255,36.1610426 20.2197128,36.787234 19.4701872,36.787234 L2.54008936,36.787234 C1.79056383,36.787234 1.18085106,36.1610426 1.18085106,35.3912596 L1.18085106,33.9952851 L20.8294255,33.9952851 L20.8294255,35.3912596 Z M20.8294255,32.7826 L1.18085106,32.7826 L1.18085106,21.0448851 L20.8294255,21.0448851 L20.8294255,32.7826 Z M20.1050128,14.7688213 C20.4841447,14.9918085 20.8294255,15.6635191 20.8294255,16.178217 L20.8294255,19.8321191 L1.18085106,19.8321191 L1.18085106,16.1782979 C1.18085106,15.6636 1.52613191,14.9918894 1.90526383,14.7689021 L2.92677872,14.1681787 C3.11044043,14.0601617 3.22380213,13.8594085 3.22380213,13.642 L3.22380213,11.8417702 L18.7866319,11.8417702 L18.7866319,13.642 C18.7866319,13.8594085 18.8999149,14.0601617 19.0836553,14.1681787 L20.1050128,14.7688213 Z M1.82063617,10.6290043 L1.82063617,8.02608511 C1.82063617,7.81207234 1.9966617,7.63128936 2.20504255,7.63128936 L4.54974043,7.63128936 L4.54974043,8.80985532 C4.54974043,9.14474043 4.81409362,9.4162383 5.14016596,9.4162383 C5.4662383,9.4162383 5.73059149,9.14474043 5.73059149,8.80985532 L5.73059149,7.63128936 L8.45969574,7.63128936 L8.45969574,8.80985532 C8.45969574,9.14474043 8.72404894,9.4162383 9.05012128,9.4162383 C9.37619362,9.4162383 9.64054681,9.14474043 9.64054681,8.80985532 L9.64054681,7.63128936 L12.3696511,7.63128936 L12.3696511,8.80985532 C12.3696511,9.14474043 12.6340043,9.4162383 12.9600766,9.4162383 C13.2861489,9.4162383 13.5505021,9.14474043 13.5505021,8.80985532 L13.5505021,7.63128936 L16.2796064,7.63128936 L16.2796064,8.80985532 C16.2796064,9.14474043 16.5439596,9.4162383 16.8700319,9.4162383 C17.1961043,9.4162383 17.4604574,9.14474043 17.4604574,8.80985532 L17.4604574,7.63128936 L19.805234,7.63128936 C20.0136149,7.63128936 20.1896404,7.81207234 20.1896404,8.02608511 L20.1896404,10.6290043 L1.82063617,10.6290043 Z" id="Shape" fill-rule="nonzero"></path>
                            <path d="M7.4729766,30.5901617 L14.5373,30.5901617 C16.5111319,30.5901617 18.1169319,28.9409617 18.1169319,26.913783 C18.1169319,24.8866043 16.5111319,23.2374043 14.5373,23.2374043 L7.4729766,23.2374043 C5.49914468,23.2374043 3.89334468,24.8866043 3.89334468,26.913783 C3.89334468,28.9409617 5.49914468,30.5901617 7.4729766,30.5901617 Z M11.5955638,24.4501702 L14.5373,24.4501702 C15.8600106,24.4501702 16.9360809,25.5553234 16.9360809,26.913783 C16.9360809,28.2722426 15.8600106,29.3773957 14.5373,29.3773957 L11.5955638,29.3773957 L11.5955638,24.4501702 Z M7.4729766,24.4501702 L10.4147128,24.4501702 L10.4147128,29.3773957 L7.4729766,29.3773957 C6.15026596,29.3773957 5.07419574,28.2722426 5.07419574,26.913783 C5.07419574,25.5553234 6.15026596,24.4501702 7.4729766,24.4501702 Z" id="Shape" fill-rule="nonzero"></path>
                            <path d="M17.0152766,13.0355362 L9.71840426,13.0355362 C9.39233191,13.0355362 9.12797872,13.307034 9.12797872,13.6419191 C9.12797872,13.9768043 9.39233191,14.2483021 9.71840426,14.2483021 L17.0152766,14.2483021 C17.3413489,14.2483021 17.6057021,13.9768043 17.6057021,13.6419191 C17.6057021,13.307034 17.3413489,13.0355362 17.0152766,13.0355362 Z" id="Path"></path>
                            <path d="M7.35670213,13.0355362 L4.995,13.0355362 C4.66892766,13.0355362 4.40457447,13.307034 4.40457447,13.6419191 C4.40457447,13.9768043 4.66892766,14.2483021 4.995,14.2483021 L7.35670213,14.2483021 C7.68277447,14.2483021 7.94712766,13.9768043 7.94712766,13.6419191 C7.94712766,13.307034 7.68277447,13.0355362 7.35670213,13.0355362 Z" id="Path"></path>
                            <path d="M24.0944,34.9680851 C24.0944,35.3029702 24.3587532,35.5744681 24.6848255,35.5744681 C25.0108979,35.5744681 25.2752511,35.3029702 25.2752511,34.9680851 L25.2752511,30.1170213 C25.2752511,29.7821362 25.0108979,29.5106383 24.6848255,29.5106383 C24.3587532,29.5106383 24.0944,29.7821362 24.0944,30.1170213 L24.0944,34.9680851 Z" id="Path"></path>
                            <path d="M24.6848255,28.2978723 C25.0108979,28.2978723 25.2752511,28.0263745 25.2752511,27.6914894 L25.2752511,3.03191489 C25.2752511,2.69702979 25.0108979,2.42553191 24.6848255,2.42553191 C24.3587532,2.42553191 24.0944,2.69702979 24.0944,3.03191489 L24.0944,27.6914894 C24.0944,28.0263745 24.3587532,28.2978723 24.6848255,28.2978723 Z" id="Path"></path>
                            <path d="M32.5521277,0 L16.8175234,0 C14.3649745,0 12.3696511,2.04925106 12.3696511,4.56808511 C12.3696511,4.90297021 12.6340043,5.17446809 12.9600766,5.17446809 C13.2861489,5.17446809 13.5505021,4.90297021 13.5505021,4.56808511 C13.5505021,2.71797021 15.0160957,1.21276596 16.8175234,1.21276596 L32.5521277,1.21276596 C34.3535553,1.21276596 35.8191489,2.71797021 35.8191489,4.56808511 L35.8191489,33.4319149 C35.8191489,35.2820298 34.3535553,36.787234 32.5521277,36.787234 L23.3233043,36.787234 C22.9972319,36.787234 22.7328787,37.0587319 22.7328787,37.393617 C22.7328787,37.7285021 22.9972319,38 23.3233043,38 L32.5521277,38 C35.0046766,38 37,35.9507489 37,33.4319149 L37,4.56808511 C37,2.04925106 35.0046766,0 32.5521277,0 Z" id="Path"></path>
                            <path d="M30.5472,9.5117234 C32.1364681,9.5117234 33.4295,8.18382553 33.4295,6.5515234 C33.4295,4.91930213 32.1365468,3.59140426 30.5472,3.59140426 C28.9578532,3.59140426 27.6649,4.91930213 27.6649,6.5515234 C27.6649,8.18382553 28.9579319,9.5117234 30.5472,9.5117234 Z M30.5472,4.80417021 C31.4853468,4.80417021 32.2486489,5.58802128 32.2486489,6.5515234 C32.2486489,7.51502553 31.4854255,8.29895745 30.5472,8.29895745 C29.6089745,8.29895745 28.8457511,7.51510638 28.8457511,6.5515234 C28.8457511,5.58802128 29.6090532,4.80417021 30.5472,4.80417021 Z" id="Shape" fill-rule="nonzero"></path>
                            <path d="M30.5472,17.8106809 C32.1364681,17.8106809 33.4295,16.482783 33.4295,14.8504809 C33.4295,13.2182596 32.1365468,11.8903617 30.5472,11.8903617 C28.9578532,11.8903617 27.6649,13.2182596 27.6649,14.8504809 C27.6649,16.482783 28.9579319,17.8106809 30.5472,17.8106809 Z M30.5472,13.1031277 C31.4853468,13.1031277 32.2486489,13.8869787 32.2486489,14.8504809 C32.2486489,15.813983 31.4854255,16.5979149 30.5472,16.5979149 C29.6089745,16.5979149 28.8457511,15.8140638 28.8457511,14.8504809 C28.8457511,13.8869787 29.6090532,13.1031277 30.5472,13.1031277 Z" id="Shape" fill-rule="nonzero"></path>
                            <path d="M30.5472,26.1096383 C32.1364681,26.1096383 33.4295,24.7817404 33.4295,23.1495191 C33.4295,21.5172979 32.1365468,20.1893191 30.5472,20.1893191 C28.9578532,20.1893191 27.6649,21.517217 27.6649,23.1495191 C27.6649,24.7817404 28.9579319,26.1096383 30.5472,26.1096383 Z M30.5472,21.4020851 C31.4853468,21.4020851 32.2486489,22.1859362 32.2486489,23.1495191 C32.2486489,24.1130213 31.4854255,24.8968723 30.5472,24.8968723 C29.6089745,24.8968723 28.8457511,24.1130213 28.8457511,23.1495191 C28.8457511,22.1859362 29.6090532,21.4020851 30.5472,21.4020851 Z" id="Shape" fill-rule="nonzero"></path>
                            <path d="M30.5472,34.4085957 C32.1364681,34.4085957 33.4295,33.0806979 33.4295,31.4484766 C33.4295,29.8162553 32.1365468,28.4882766 30.5472,28.4882766 C28.9578532,28.4882766 27.6649,29.8161745 27.6649,31.4484766 C27.6649,33.0806979 28.9579319,34.4085957 30.5472,34.4085957 Z M30.5472,29.7010426 C31.4853468,29.7010426 32.2486489,30.4848936 32.2486489,31.4484766 C32.2486489,32.4119787 31.4854255,33.1958298 30.5472,33.1958298 C29.6089745,33.1958298 28.8457511,32.4119787 28.8457511,31.4484766 C28.8457511,30.4848936 29.6090532,29.7010426 30.5472,29.7010426 Z" id="Shape" fill-rule="nonzero"></path>
                            <path d="M17.8720234,5.10194468 C18.1529872,4.90709362 18.4816574,4.80417021 18.8225298,4.80417021 C19.1704085,4.80417021 19.5047468,4.91105532 19.7892532,5.11334468 C19.8917511,5.18619149 20.0088128,5.22111915 20.1246936,5.22111915 C20.3118979,5.22111915 20.4961106,5.12991915 20.6107319,4.95980851 C20.796283,4.68442979 20.7293681,4.30669362 20.4612362,4.11604681 C19.9783468,3.77275319 19.411617,3.5913234 18.8225298,3.5913234 C18.2452511,3.5913234 17.6881255,3.7661234 17.2112979,4.0967234 C16.9410404,4.28413617 16.8698745,4.66098298 17.0523553,4.93862553 C17.2348362,5.21626809 17.6018447,5.28935745 17.8720234,5.10194468 Z" id="Path"></path>
                        </g>
                    </g>
                </g>
            </g>
        </g>
    </g>
</svg>