<?xml version="1.0" encoding="UTF-8"?>
<svg width="32px" height="33px" viewBox="0 0 32 33" version="1.1" xmlns="http://www.w3.org/2000/svg" xmlns:xlink="http://www.w3.org/1999/xlink">
    <!-- Generator: Sketch 52.4 (67378) - http://www.bohemiancoding.com/sketch -->
    <title>noun_Contacts_1212309</title>
    <desc>Created with Sketch.</desc>
    <g id="Quienes-somos" stroke="none" stroke-width="1" fill="none" fill-rule="evenodd">
        <g id="Quienes_Somos" transform="translate(-664.000000, -3679.000000)" fill="#00a7b5">
            <g id="Enlace-de-interés" transform="translate(-4.000000, 3516.000000)">
                <g id="CTA-Copy-3" transform="translate(655.000000, 151.000000)">
                    <g id="noun_Contacts_1212309" transform="translate(13.000000, 12.000000)">
                        <path d="M11,20.8977458 L11,23.1760281 C11,23.6310952 11.3510509,24 11.7840941,24 L24.2159059,24 C24.6489491,24 25,23.6310952 25,23.1760281 L25,20.8977458 C24.9913564,17.6868587 22.5119565,15.0887309 19.4564548,15.0887438 L19.2604313,15.0887438 C21.0953697,14.4398371 22.2127567,12.4895096 21.8998939,10.4817307 C21.587031,8.47395177 19.9360545,7 18,7 C16.0639455,7 14.412969,8.47395177 14.1001061,10.4817307 C13.7872433,12.4895096 14.9046303,14.4398371 16.7395687,15.0887438 L16.5357043,15.0887438 C13.4832632,15.093268 11.0086319,17.6900719 11,20.8977458 Z M15.6143937,11.150158 C15.6143937,10.1370308 16.1951504,9.22366266 17.0858579,8.83595566 C17.9765654,8.44824867 19.0018141,8.66255511 19.683532,9.37894422 C20.36525,10.0953333 20.5691847,11.1727246 20.2002416,12.1087321 C19.8312984,13.0447396 18.9621346,13.6550327 17.9980398,13.6550327 C16.6824835,13.6527645 15.6165522,12.5326215 15.6143937,11.150158 Z M23.4318118,20.8977458 L23.4318118,22.3520562 L12.5681882,22.3520562 L12.5681882,20.8977458 C12.5746647,18.5992659 14.3484556,16.7389465 16.5357043,16.7366876 L19.4564548,16.7366876 C21.6467637,16.7344053 23.4253263,18.5960501 23.4318118,20.8977458 Z" id="Shape" fill-rule="nonzero"></path>
                        <rect id="Rectangle" x="3" y="14" width="1" height="7"></rect>
                        <path d="M32,4.82926829 C32,2.16213706 29.8509668,0 27.2,0 L6.4,0 C5.0745166,0 4,1.08106853 4,2.41463415 L4,6.84146341 L5.6,6.84146341 L5.6,2.41463415 C5.6,1.97011227 5.9581722,1.6097561 6.4,1.6097561 L27.2,1.6097561 C28.9673112,1.6097561 30.4,3.05118081 30.4,4.82926829 L30.4,28.1707317 C30.4,29.9488192 28.9673112,31.3902439 27.2,31.3902439 L6.4,31.3902439 C5.9581722,31.3902439 5.6,31.0298877 5.6,30.5853659 L5.6,26.1585366 L4,26.1585366 L4,30.5853659 C4,31.9189315 5.0745166,33 6.4,33 L27.2,33 C29.8509668,33 32,30.8378629 32,28.1707317 L32,4.82926829 Z" id="Path"></path>
                        <path d="M0,23.5 C0,23.7761424 0.3581722,24 0.8,24 L6.2,24 C6.6418278,24 7,23.7761424 7,23.5 C7,23.2238576 6.6418278,23 6.2,23 L0.8,23 C0.3581722,23 0,23.2238576 0,23.5 Z" id="Path"></path>
                        <path d="M0,9.5 C0,9.77614237 0.325611091,10 0.727272727,10 L5.27272727,10 C5.67438891,10 6,9.77614237 6,9.5 C6,9.22385763 5.67438891,9 5.27272727,9 L0.727272727,9 C0.325611091,9 0,9.22385763 0,9.5 Z" id="Path"></path>
                    </g>
                </g>
            </g>
        </g>
    </g>
</svg>