<?xml version="1.0" encoding="UTF-8"?>
<!DOCTYPE svg PUBLIC "-//W3C//DTD SVG 1.1//EN" "http://www.w3.org/Graphics/SVG/1.1/DTD/svg11.dtd">
<!-- Creator: CorelDRAW X7 -->
<svg xmlns="http://www.w3.org/2000/svg" xml:space="preserve" width="210mm" height="297mm" version="1.1" style="shape-rendering:geometricPrecision; text-rendering:geometricPrecision; image-rendering:optimizeQuality; fill-rule:evenodd; clip-rule:evenodd"
viewBox="0 0 21000 29700"
 xmlns:xlink="http://www.w3.org/1999/xlink">
 <defs>
  <style type="text/css">
   <![CDATA[
    .fil0 {fill:#00A7B5}
   ]]>
  </style>
 </defs>
 <g id="Capa_x0020_1">
  <metadata id="CorelCorpID_0Corel-Layer"/>
  <path class="fil0" d="M2973 12356l-485 0 -23 -88c0,-1 0,-2 -1,-2 -6,-17 -23,-28 -41,-28l-118 0c-25,0 -45,19 -45,44 0,24 20,44 45,44l86 0 108 414c1,0 1,1 1,1 6,15 19,26 35,28 -6,9 -9,19 -9,30 0,33 27,59 60,59 32,0 59,-26 59,-59 0,-11 -3,-21 -8,-30l181 0c-5,9 -8,19 -8,30 0,33 27,59 59,59 33,0 59,-26 59,-59 0,-11 -2,-21 -7,-29l7 0c25,0 45,-20 45,-45 0,-24 -20,-44 -45,-44l-355 0 -8 -30 363 0c21,0 39,-13 43,-33 1,0 1,-1 1,-1l14 -66c0,0 0,0 0,0l19 -89c0,0 0,0 0,0l11 -51c7,-28 -14,-55 -43,-55zm-387 473c-17,0 -30,-14 -30,-30 0,-16 13,-29 30,-29 16,0 29,13 29,29 0,16 -13,30 -29,30zm283 0c-16,0 -29,-14 -29,-30 0,-16 13,-29 29,-29 17,0 30,13 30,29 0,16 -13,30 -30,30zm59 -119c9,0 15,7 15,15 0,8 -6,15 -15,15l-387 0c-6,0 -11,-3 -13,-9l-111 -423c-2,-7 -8,-11 -14,-11l-98 0c-8,0 -15,-7 -15,-15 0,-8 7,-15 15,-15l118 0c6,0 11,4 14,9l110 423c2,7 8,11 15,11l366 0 0 0zm-274 -88l-96 0 -16 -59 112 0 0 59zm0 -89l-120 0 -15 -59 135 0 0 59zm0 -89l-143 0 -15 -59 158 0 0 59 0 0zm147 178l-118 0 0 -59 118 0 0 59zm0 -89l-118 0 0 -59 118 0 0 59zm0 -89l-118 0 0 -59 118 0 0 59zm142 167c-2,6 -8,11 -15,11l-97 0 0 -59 122 0 -10 48zm16 -78l-128 0 0 -59 141 0 -13 59zm28 -129c0,0 0,0 0,0l-9 40 -147 0 0 -59 142 0c9,0 16,9 14,19z"/>
 </g>
</svg>
