<?xml version="1.0" encoding="UTF-8"?>
<svg width="36px" height="36px" viewBox="0 0 36 36" version="1.1" xmlns="http://www.w3.org/2000/svg" xmlns:xlink="http://www.w3.org/1999/xlink">
    <!-- Generator: Sketch 52.4 (67378) - http://www.bohemiancoding.com/sketch -->
    <title>data-visualization</title>
    <desc>Created with Sketch.</desc>
    <g id="Quienes-somos" stroke="none" stroke-width="1" fill="none" fill-rule="evenodd">
        <g id="Quienes_Somos" transform="translate(-673.000000, -1270.000000)" fill="#4A4A4A" fill-rule="nonzero">
            <g id="Menarini-España" transform="translate(167.000000, 425.000000)">
                <g id="Misión-y-Visión" transform="translate(3.000000, 427.000000)">
                    <g id="Group-18" transform="translate(503.000000, 418.000000)">
                        <g id="Group-17">
                            <g id="data-visualization">
                                <path d="M28.8033076,17.5612103 C28.6067662,17.3749919 23.923764,13 18.0000283,13 C12.0762927,13 7.39321492,17.3749267 7.19674909,17.5612103 C6.93441697,17.809936 6.93441697,18.190064 7.19674909,18.4387246 C7.39329046,18.624943 12.0762927,23 18.0000283,23 C23.923764,23 28.6068417,18.624943 28.8033076,18.4387246 C29.0655641,18.190064 29.0655641,17.809936 28.8033076,17.5612103 Z M17.9999528,21.1705362 C15.9740358,21.1705362 14.3257169,19.7481847 14.3257169,18 C14.3257169,16.2517501 15.9739603,14.8294638 17.9999528,14.8294638 C20.0259453,14.8294638 21.6741887,16.2516849 21.6741887,18 C21.6741887,19.7481196 20.0259453,21.1705362 17.9999528,21.1705362 Z M14.1815211,14.977161 C13.3336438,15.7739829 12.8150978,16.8355647 12.8150978,18 C12.8150978,19.1644353 13.3336438,20.2260171 14.1815211,21.022839 C11.6878175,20.1695063 9.71394397,18.723234 8.82550447,18 C9.71424611,17.2765053 11.6881197,15.8303633 14.1815211,14.977161 Z M21.81846,21.022839 C22.6663373,20.2260171 23.1848833,19.164305 23.1848833,18 C23.1848833,16.8355647 22.6663373,15.7739829 21.81846,14.977161 C24.3121636,15.8303633 26.2861127,17.2766357 27.1744766,18 C26.285735,18.7234947 24.3118614,20.1696367 21.81846,21.022839 Z" id="Shape"></path>
                                <path d="M34.2298164,10.2357551 C32.1564676,5.89951837 28.5189994,2.63027755 23.9874968,1.0305551 C22.0504713,0.346702041 20.035956,0 17.9999933,0 C10.3877006,0 3.56999086,4.82671837 1.0350083,12.0107755 C-0.564293704,16.5435429 -0.303252125,21.4279347 1.77017014,25.7642449 C3.84359241,30.1005551 7.48106064,33.369649 12.0125632,34.9694449 C13.9495887,35.6532245 15.964104,36 18.0000667,36 C25.6125063,36 32.430216,31.1731347 34.9650517,23.9890776 C36.5642803,19.4563102 36.3032387,14.5720653 34.2298164,10.2357551 Z M17.9999933,5.45995102 C24.9127474,5.45995102 30.5367465,11.0853551 30.5367465,18 C30.5367465,24.9146449 24.9128209,30.539902 17.9999933,30.539902 C11.0872391,30.539902 5.46324009,24.9146449 5.46324009,18 C5.46324009,11.0853551 11.0872391,5.45995102 17.9999933,5.45995102 Z M17.2654925,1.48643265 L17.2654925,4.01025306 C11.7520358,4.29663673 7.07245785,7.78716735 5.0561063,12.6513551 L2.68065731,11.8126286 C5.09841355,5.82303673 10.8178243,1.77377143 17.2654925,1.48643265 Z M17.9999933,34.5306122 C16.131056,34.5306122 14.2809955,34.212049 12.501447,33.5836653 C8.33991241,32.1145714 4.99947629,29.1123918 3.09542991,25.1302041 C1.29729853,21.3696735 0.9842543,17.1605388 2.19170014,13.1982612 L4.56604738,14.0365469 C4.19461033,15.2938286 3.99431197,16.6239184 3.99431197,18 C3.99431197,25.7247918 10.2772317,32.0092898 18.0000667,32.0092898 C21.8266689,32.0092898 25.2991683,30.4658449 27.8295969,27.9692082 L29.7823407,29.5798041 C26.7379819,32.6753633 22.5219474,34.5306122 17.9999933,34.5306122 Z M33.5797832,23.4999918 C32.9273996,25.3489224 31.9660115,27.027698 30.766278,28.4867265 L28.8219809,26.8831837 C30.810348,24.4639837 32.005748,21.3689388 32.005748,18 C32.005748,10.5216245 26.1172553,4.39324898 18.7344941,4.00981224 L18.7344941,1.48613878 C20.3531869,1.55857959 21.9524889,1.87045714 23.4985396,2.41611429 C32.0892608,5.44893061 36.6115821,14.9070857 33.5797832,23.4999918 Z" id="Shape"></path>
                            </g>
                        </g>
                    </g>
                </g>
            </g>
        </g>
    </g>
</svg>