<?xml version="1.0" encoding="UTF-8"?>
<svg width="38px" height="41px" viewBox="0 0 38 41" version="1.1" xmlns="http://www.w3.org/2000/svg" xmlns:xlink="http://www.w3.org/1999/xlink">
    <!-- Generator: Sketch 52.4 (67378) - http://www.bohemiancoding.com/sketch -->
    <title>diploma</title>
    <desc>Created with Sketch.</desc>
    <g id="Quienes-somos" stroke="none" stroke-width="1" fill="none" fill-rule="evenodd">
        <g id="Quienes_Somos" transform="translate(-655.000000, -1691.000000)" fill="#00a7b5">
            <g id="Menarini-España" transform="translate(167.000000, 425.000000)">
                <g id="Valores" transform="translate(4.000000, 1059.000000)">
                    <g id="Group-3" transform="translate(484.000000, 207.000000)">
                        <g id="diploma">
                            <path d="M23.0933695,14.3343047 C23.0933695,14.7114727 23.3959415,15.0176113 23.770309,15.0176113 L30.5399415,15.0176113 C30.914309,15.0176113 31.216881,14.7114727 31.216881,14.3343047 C31.216881,13.9571367 30.914309,13.650998 30.5399415,13.650998 L23.770309,13.650998 C23.3959415,13.650918 23.0933695,13.9570566 23.0933695,14.3343047 Z" id="Path"></path>
                            <path d="M27.1551649,18.4343047 C27.1551649,18.8114727 27.457737,19.1176113 27.8321044,19.1176113 L31.8938998,19.1176113 C32.2682672,19.1176113 32.5708392,18.8114727 32.5708392,18.4343047 C32.5708392,18.0571367 32.2682672,17.750998 31.8938998,17.750998 L27.8321044,17.750998 C27.457737,17.750918 27.1551649,18.0570566 27.1551649,18.4343047 Z" id="Path"></path>
                            <path d="M26.4781461,10.9176113 C26.8525136,10.9176113 27.1550856,10.6114727 27.1550856,10.2343047 C27.1550856,9.85713672 26.8525136,9.55099805 26.4781461,9.55099805 L25.1241879,9.55099805 C24.7498205,9.55099805 24.4472484,9.85713672 24.4472484,10.2343047 C24.4472484,10.6114727 24.7498205,10.9176113 25.1241879,10.9176113 L26.4781461,10.9176113 Z" id="Path"></path>
                            <path d="M18.3545553,17.750918 C17.9801879,17.750918 17.6776159,18.0570566 17.6776159,18.4342246 C17.6776159,18.8113926 17.9801879,19.1175312 18.3545553,19.1175312 L25.1241879,19.1175312 C25.4985553,19.1175312 25.8011273,18.8113926 25.8011273,18.4342246 C25.8011273,18.0570566 25.4985553,17.750918 25.1241879,17.750918 L18.3545553,17.750918 Z" id="Path"></path>
                            <path d="M21.7394113,36.8843047 L8.87708559,36.8843047 C7.75739457,36.8843047 6.84618789,35.9645273 6.84618789,34.8343047 L6.84618789,3.40091797 C6.84618789,3.02375 6.54361587,2.71761133 6.16924843,2.71761133 C4.30288518,2.71761133 2.78439248,4.25030664 2.78439248,6.13430469 C2.78439248,6.51147266 3.08696451,6.81761133 3.46133194,6.81761133 C3.83569937,6.81761133 4.1382714,6.51147266 4.1382714,6.13430469 C4.1382714,5.24319531 4.70422547,4.48333398 5.49222965,4.20113867 L5.49222965,34.8343047 C5.49222965,36.7182227 7.01064301,38.250998 8.87708559,38.250998 L21.7394113,38.250998 C22.1137787,38.250998 22.4163507,37.9448594 22.4163507,37.5676914 C22.4163507,37.1905234 22.1137787,36.8843047 21.7394113,36.8843047 Z" id="Path"></path>
                            <path d="M11.5849228,15.0176113 L21.0624718,15.0176113 C21.4368392,15.0176113 21.7394113,14.7114727 21.7394113,14.3343047 C21.7394113,13.9571367 21.4368392,13.650998 21.0624718,13.650998 L11.5849228,13.650998 C11.2105553,13.650998 10.9079833,13.9571367 10.9079833,14.3343047 C10.9079833,14.7114727 11.2105553,15.0176113 11.5849228,15.0176113 Z" id="Path"></path>
                            <path d="M11.5849228,10.9176113 L14.2927599,10.9176113 C14.6671273,10.9176113 14.9696994,10.6114727 14.9696994,10.2343047 C14.9696994,9.85713672 14.6671273,9.55099805 14.2927599,9.55099805 L11.5849228,9.55099805 C11.2105553,9.55099805 10.9079833,9.85713672 10.9079833,10.2343047 C10.9079833,10.6114727 11.2105553,10.9176113 11.5849228,10.9176113 Z" id="Path"></path>
                            <path d="M22.4163507,9.55091797 L17.0005971,9.55091797 C16.6262296,9.55091797 16.3236576,9.85705664 16.3236576,10.2342246 C16.3236576,10.6113926 16.6262296,10.9175313 17.0005971,10.9175313 L22.4163507,10.9175313 C22.7907182,10.9175313 23.0932902,10.6113926 23.0932902,10.2342246 C23.0933695,9.85705664 22.7907182,9.55091797 22.4163507,9.55091797 Z" id="Path"></path>
                            <path d="M31.8938998,0 L6.1691691,0 C2.8174739,0 0.0893277662,2.7462793 0.0764759916,6.12605664 L0.0764759916,6.13422461 L0.0764759916,6.14175195 L0.0764759916,6.15 L0.0764759916,6.15816797 C0.0852818372,8.33733398 1.25035073,10.3674746 3.12210856,11.4608613 C3.44570355,11.6494453 3.85934029,11.5380566 4.04680167,11.2121387 C4.23497704,10.8855 4.12327766,10.467332 3.80039666,10.278668 C2.34092693,9.42519531 1.43313152,7.84125 1.43043424,6.14183203 C1.43519415,3.50822266 3.5588309,1.36669336 6.1691691,1.36669336 L31.8938998,1.36669336 C34.5063006,1.36669336 36.6326347,3.51238672 36.6326347,6.15 L36.6326347,34.85 C36.6326347,35.196418 36.5364843,35.5442773 36.3557662,35.8545 C36.1668768,36.1797773 36.2738163,36.598666 36.5960626,36.7899727 C36.7043507,36.8541953 36.8221587,36.8843047 36.938618,36.8843047 C37.1708225,36.8843047 37.3969186,36.7640273 37.5228184,36.547416 C37.8261044,36.0273887 37.9865136,35.440416 37.9865136,34.85 L37.9865136,6.15 C37.9865929,2.75861133 35.2536868,0 31.8938998,0 Z" id="Path"></path>
                            <path d="M33.9247975,31.4176113 C33.9247975,29.1564453 32.1030981,27.3176113 29.8630021,27.3176113 C27.6229061,27.3176113 25.8012067,29.1564453 25.8012067,31.4176113 C25.8012067,33.6787773 27.6229061,35.5176113 29.8630021,35.5176113 C32.1030981,35.5176113 33.9247975,33.6787773 33.9247975,31.4176113 Z M29.8630021,34.150918 C28.3695783,34.150918 27.1551649,32.925002 27.1551649,31.4176113 C27.1551649,29.9102207 28.3696576,28.6843047 29.8630021,28.6843047 C31.3564259,28.6843047 32.5708392,29.9102207 32.5708392,31.4176113 C32.5708392,32.925002 31.3564259,34.150918 29.8630021,34.150918 Z" id="Shape" fill-rule="nonzero"></path>
                            <path d="M28.6410522,36.2016387 C28.3181712,36.0130547 27.9038205,36.125084 27.7162797,36.4517227 L26.2587933,39.00125 L26.0273027,38.648666 C25.9102088,38.4689707 25.7159248,38.3555 25.5033152,38.343248 L25.0849186,38.3179434 L26.5668392,35.7281367 C26.753666,35.401498 26.6426806,34.9833301 26.3190856,34.794666 C25.9954906,34.6053613 25.5812192,34.7174707 25.3936785,35.04475 L23.3648434,38.5919707 C23.2477495,38.7969707 23.2443382,39.0491367 23.3553236,39.2575 C23.466309,39.4658633 23.6762213,39.601916 23.9111232,39.6155293 L25.0842839,39.6865586 L25.7321086,40.6767246 C25.8573737,40.868752 26.069904,40.9835039 26.296714,40.9835039 L26.317737,40.9835039 C26.5512902,40.9759766 26.7658831,40.8468105 26.883691,40.6418105 L28.8895198,37.1349492 C29.0763466,36.8084707 28.9653612,36.3902227 28.6410522,36.2016387 Z" id="Path"></path>
                            <path d="M34.3499374,35.0768613 C34.1623967,34.749582 33.7474113,34.6374727 33.4251649,34.8267773 C33.1009353,35.0153613 32.9898706,35.4336094 33.1766973,35.760168 L34.6410063,38.3178633 L34.2226096,38.343168 C34.0100793,38.3561406 33.8157954,38.4696113 33.6979875,38.6485859 L33.4678455,39.0011699 L32.0178163,36.4646152 C31.8296409,36.1379766 31.4152902,36.0259473 31.0924092,36.2145313 C30.7688142,36.4031152 30.6578288,36.8213633 30.8446555,37.148002 L32.8430271,40.6418906 C32.9608351,40.8468906 33.175428,40.9760566 33.4089812,40.983584 L33.4300042,40.983584 C33.6561002,40.983584 33.8693445,40.868752 33.9952443,40.6768047 L34.6424342,39.6873594 L35.8149603,39.6156094 C36.0498622,39.601916 36.2596952,39.4659434 36.3707599,39.2575801 C36.4818246,39.0492168 36.4776994,38.7970508 36.3613194,38.5920508 L34.3499374,35.0768613 Z" id="Path"></path>
                            <path d="M11.5849228,19.1176113 L15.6467182,19.1176113 C16.0210856,19.1176113 16.3236576,18.8114727 16.3236576,18.4343047 C16.3236576,18.0571367 16.0210856,17.750998 15.6467182,17.750998 L11.5849228,17.750998 C11.2105553,17.750998 10.9079833,18.0571367 10.9079833,18.4343047 C10.9079833,18.8114727 11.2105553,19.1176113 11.5849228,19.1176113 Z" id="Path"></path>
                            <path d="M11.5849228,23.2176113 L19.7085136,23.2176113 C20.082881,23.2176113 20.385453,22.9114727 20.385453,22.5343047 C20.385453,22.1571367 20.082881,21.850998 19.7085136,21.850998 L11.5849228,21.850998 C11.2105553,21.850998 10.9079833,22.1571367 10.9079833,22.5343047 C10.9079833,22.9114727 11.2105553,23.2176113 11.5849228,23.2176113 Z" id="Path"></path>
                            <path d="M11.6566388,31.7230293 C11.8231566,32.0605586 12.2300501,32.197252 12.5644342,32.029168 C12.8988184,31.8603633 13.034952,31.4497227 12.8670063,31.1121133 C12.19681,29.7591133 12.0465553,28.5455293 12.463524,27.8642246 C12.6855741,27.5013906 13.0727933,27.3175312 13.6157411,27.3175312 C13.9386221,27.3175312 14.0591273,27.4295605 14.1349687,27.5389473 C14.6392818,28.2728633 14.1600376,30.5080039 13.6584217,31.8610039 C13.5467223,32.1623379 13.6584217,32.5013086 13.9264843,32.6755586 C14.1931983,32.8484473 14.5459081,32.8108906 14.7713695,32.5840293 C15.0604551,32.2929453 15.3738956,32.002502 15.6467182,31.766752 L15.6467182,32.100918 C15.6467182,32.3769473 15.8112526,32.6263906 16.0644008,32.7316133 C16.3175491,32.8381973 16.6079833,32.7794199 16.8022672,32.5840293 C17.1116618,32.2724453 17.4704008,31.9669473 17.7723382,31.7469727 C17.7642463,31.7640293 17.7560752,31.7804453 17.7479833,31.7961406 C17.6443758,32.0079473 17.6558789,32.2594727 17.7791608,32.4603086 C17.9030772,32.6612246 18.1203674,32.7842246 18.3545553,32.7842246 L21.0623925,32.7842246 C21.4367599,32.7842246 21.7393319,32.4780859 21.7393319,32.100918 C21.7393319,31.72375 21.4367599,31.4176113 21.0623925,31.4176113 L19.3002714,31.4176113 C19.3550898,31.092334 19.3416033,30.7616113 19.1784175,30.4951113 C19.0057912,30.212916 18.7052025,30.050918 18.3545553,30.050918 C17.9361587,30.050918 17.4440626,30.3078086 16.9945678,30.6262793 C16.9600585,30.3283086 16.7853695,30.0830293 16.5200042,29.9723613 C16.339286,29.897168 16.1063674,29.798832 15.5411273,30.141166 C15.7638121,28.9637773 15.8288643,27.6066934 15.2479958,26.760748 C14.9941336,26.3910273 14.5053695,25.950998 13.6158205,25.950998 C12.6017203,25.950998 11.7832526,26.375332 11.3114656,27.1461641 C10.6365094,28.249 10.7616952,29.9170273 11.6566388,31.7230293 Z" id="Path"></path>
                            <path d="M29.8630021,22.5343047 C29.8630021,22.1571367 29.5604301,21.850998 29.1860626,21.850998 L22.4164301,21.850998 C22.0420626,21.850998 21.7394906,22.1571367 21.7394906,22.5343047 C21.7394906,22.9114727 22.0420626,23.2176113 22.4164301,23.2176113 L29.1860626,23.2176113 C29.5604301,23.2176113 29.8630021,22.9114727 29.8630021,22.5343047 Z" id="Path"></path>
                        </g>
                    </g>
                </g>
            </g>
        </g>
    </g>
</svg>