<?xml version="1.0" encoding="UTF-8"?>
<svg width="39px" height="39px" viewBox="0 0 39 39" version="1.1" xmlns="http://www.w3.org/2000/svg" xmlns:xlink="http://www.w3.org/1999/xlink">
    <!-- Generator: Sketch 52.4 (67378) - http://www.bohemiancoding.com/sketch -->
    <title>Group</title>
    <desc>Created with Sketch.</desc>
    <g id="Quienes-somos" stroke="none" stroke-width="1" fill="none" fill-rule="evenodd">
        <g id="Quienes_Somos" transform="translate(-674.000000, -888.000000)" fill="#4A4A4A">
            <g id="Menarini-España" transform="translate(167.000000, 425.000000)">
                <g id="Misión-y-Visión" transform="translate(3.000000, 427.000000)">
                    <g id="Group-18-Copy" transform="translate(503.000000, 36.000000)">
                        <g id="Group" transform="translate(1.000000, 0.000000)">
                            <path d="M24.6683758,8.4891134 C24.6683758,5.62090966 22.3432372,3.29577113 19.4750335,3.29577113 C16.6068298,3.29577113 14.2816912,5.62090966 14.2816912,8.4891134 C14.2816912,11.3573171 16.6068298,13.6824557 19.4750335,13.6824557 C22.3419025,13.6792359 24.665156,11.3559824 24.6683758,8.4891134 Z M15.5800268,8.4891134 C15.5800268,6.3379606 17.3238807,4.5941067 19.4750335,4.5941067 C21.6261863,4.5941067 23.3700402,6.3379606 23.3700402,8.4891134 C23.3700402,10.6402662 21.6261863,12.3841201 19.4750335,12.3841201 C17.3247707,12.3819731 15.5821739,10.6393762 15.5800268,8.4891134 Z" id="Shape" fill-rule="nonzero"></path>
                            <path d="M38.8565869,37.915889 L38.8280235,37.8146189 C38.8234793,37.7990388 38.8208826,37.7828096 38.8156893,37.7678788 C38.810496,37.7529479 38.8059518,37.7386662 38.8014076,37.7237354 L38.7884242,37.6776445 L38.7650542,37.5990952 C38.7170158,37.4231707 38.6670299,37.242702 38.6118506,37.091446 C38.5819889,36.9927724 38.5469338,36.8966956 38.5268096,36.8408672 C38.4618929,36.6396252 38.3969761,36.4390323 38.3197251,36.244282 C38.3061803,36.2022769 38.2896939,36.1612779 38.2703884,36.1215893 C38.187944,35.8930822 38.0938147,35.6626277 37.9938429,35.4393139 L37.8159709,35.0361807 C37.7432641,34.8777838 37.6686098,34.7180885 37.599798,34.5817633 C37.4790528,34.3220962 37.3446751,34.0624291 37.2102974,33.8287287 C37.116168,33.6456634 37.015547,33.4619489 36.9175227,33.3093944 C36.7422474,32.9971447 36.539707,32.6745084 36.2839349,32.294096 L36.0242678,31.9045954 C36.0109234,31.8844947 35.9963999,31.8652022 35.9807736,31.8468194 C35.971213,31.830495 35.9608123,31.8146774 35.9496135,31.7994302 C35.8334125,31.6390857 35.7165623,31.4793905 35.5971154,31.3235902 C35.4108043,31.0814506 35.2167031,30.8399602 35.0290936,30.6192431 L35.0161103,30.6049615 L35.0050744,30.5906798 C34.8103241,30.3621727 34.6155737,30.1362623 34.4208234,29.925932 L34.4143317,29.9187911 L34.3669425,29.8649102 C34.2974815,29.7883084 34.2241256,29.7110574 34.1501204,29.6351048 L34.1079245,29.589663 L34.098187,29.5799255 L34.0800103,29.5604505 L34.070922,29.5520113 L34.0663778,29.5474671 L34.0482011,29.5292904 L34.0384636,29.5195529 C34.0241819,29.5039729 34.009251,29.4909895 33.9956185,29.4760587 C33.8742241,29.3520676 33.7528297,29.2287258 33.634032,29.1131739 C33.4788809,28.962567 33.3178873,28.8132584 33.1796146,28.6912148 L33.1718246,28.684074 C33.0430514,28.553126 32.9057788,28.4308169 32.7609014,28.3179434 C32.6057503,28.180969 32.44995,28.0511354 32.2954481,27.9284427 L32.2876581,27.9226002 C32.1662637,27.8193825 32.0455185,27.7226565 31.9423008,27.6518972 C31.5761702,27.364965 31.2197771,27.1078946 30.8601381,26.8683517 C30.685512,26.7482557 30.5186759,26.6359496 30.3791048,26.5574003 C30.2051278,26.4386026 30.0246592,26.3321391 29.8428922,26.2256756 C29.6611252,26.1192121 29.4910432,26.0250827 29.323558,25.9354976 L29.3086271,25.9264092 L28.7853979,25.6537588 C28.4186181,25.4629034 28.0278191,25.2778906 27.6688293,25.1279329 C27.6403566,25.1126969 27.6108561,25.0994651 27.5805425,25.0883336 C27.4412522,25.0200138 27.2979573,24.9601811 27.1514426,24.9091633 L27.126125,24.8987766 C25.0836434,24.0758611 22.9205115,23.5919248 20.7220848,23.4660633 C22.6819224,20.7012577 27.9142147,12.9287719 27.9142147,8.4891134 C27.9142147,3.82828233 24.1358646,0.04993221 19.4750335,0.04993221 C14.8142024,0.04993221 11.0358523,3.82828233 11.0358523,8.4891134 C11.0358523,12.9281227 16.2668463,20.6986611 18.2305789,23.4595717 C12.3480674,23.8042256 6.90660266,26.6913013 3.32308989,31.3690319 L3.31854571,31.3755236 L3.23090806,31.4936722 C3.1556046,31.5942932 3.08159947,31.6929667 3.03615772,31.7611293 C2.92750332,31.8993881 2.82588781,32.0430365 2.73169803,32.1915275 L2.72260969,32.2038617 C2.59861864,32.3856287 2.47332926,32.580379 2.34219736,32.7881127 C2.29415895,32.8640653 2.24157636,32.9367721 2.19483628,33.0133739 C2.18235157,33.0342429 2.17129055,33.0559311 2.16172872,33.0782907 L2.07798608,33.2243535 C1.94815252,33.4418247 1.81831896,33.6605942 1.71510128,33.8663804 C1.6644662,33.9572639 1.61383111,34.0494457 1.5696877,34.1468209 C1.48307139,34.2979898 1.40483667,34.4538091 1.33533813,34.6135725 C1.32949562,34.6259067 1.32300394,34.6369426 1.31716143,34.6492768 C1.21199625,34.8492204 1.1224111,35.0498133 1.05749432,35.2121052 C1.04840597,35.2328786 1.03801929,35.2523536 1.02893094,35.273127 C1.0237376,35.2828645 1.02179009,35.288707 1.01724592,35.2977954 L0.982190857,35.3743972 C0.876376508,35.6145892 0.776404669,35.8619222 0.664747811,36.1676802 C0.646571113,36.2085778 0.630341918,36.2494753 0.593339354,36.3520438 C0.578707589,36.3883765 0.565924267,36.4254264 0.555038455,36.4630515 C0.504403368,36.5928851 0.460909126,36.7227187 0.425204898,36.836323 C0.398589019,36.9103281 0.374569811,36.9836841 0.349901435,37.0589876 L0.0707592884,37.9924908 C0.0519334227,38.062601 0.033107557,38.1333602 0.0162291946,38.206067 C0.0149377818,38.2300689 0.0149377818,38.2541228 0.0162291946,38.2781247 C0.00919919959,38.3019699 0.00377728747,38.3262601 0,38.3508315 C0.00289363027,38.3698507 0.006794117,38.388703 0.0116850201,38.4073091 C0.0154695417,38.4500915 0.0239600292,38.4923263 0.0370025637,38.5332476 C0.0479168543,38.5731112 0.0627016216,38.6118125 0.081145973,38.6487995 C0.0996356257,38.6836578 0.121370736,38.7166952 0.146062751,38.747473 C0.17174487,38.7811594 0.200662501,38.8122513 0.232402067,38.840304 C0.262839771,38.8648305 0.295430561,38.8865577 0.329777234,38.9052207 C0.368235009,38.928181 0.409179288,38.9466931 0.451820778,38.9604 C0.469997475,38.9662425 0.483629999,38.9792259 0.502455865,38.98377 C0.550578068,38.9947738 0.599804025,39.0002191 0.649167784,38.9999992 L38.3008992,38.9999992 C38.6594247,38.9999992 38.950067,38.7093569 38.950067,38.3508315 C38.9494796,38.2866192 38.9398643,38.2228086 38.9215036,38.1612745 C38.9026778,38.0775318 38.8806061,37.997035 38.8565869,37.915889 Z M29.1839869,27.3428933 L30.1291752,27.9394785 C30.4686899,28.1660381 30.7991163,28.4049318 31.1321394,28.664599 L31.4820408,28.9391969 C31.6209627,29.0502046 31.7598847,29.1664056 31.9156849,29.3027309 C32.035781,29.4014044 32.155877,29.5059204 32.2922022,29.6383506 C32.4285275,29.7707809 32.5791344,29.8980177 32.7290922,30.0440805 C32.840749,30.1524915 32.953055,30.266745 33.0660102,30.3816477 L33.0692561,30.3848936 L33.0828886,30.3985261 C33.0867836,30.4030703 33.1121011,30.4277387 33.1283303,30.4433187 C33.1445595,30.4588987 33.1536479,30.4699346 33.1679296,30.4835671 L33.4665468,30.8036068 C33.6541562,31.0041996 33.8359232,31.2177758 34.0339194,31.4482304 C34.2150372,31.6611574 34.3948567,31.8870678 34.566237,32.1090832 L34.87589,32.5232523 C34.9034272,32.5715874 34.935141,32.6174203 34.9706685,32.6602267 L35.2069656,33.0133739 C35.4452102,33.3665212 35.6295738,33.6625417 35.8016033,33.9657031 C35.8931359,34.1137133 35.9788261,34.2682153 36.0677621,34.4408939 C36.1930514,34.6661551 36.3131475,34.8953113 36.4286994,35.1419951 C36.500757,35.2861103 36.5695688,35.4347698 36.6370822,35.5808325 L36.8032692,35.9573498 C36.8967493,36.1696277 36.9850361,36.3812564 37.0590413,36.5928851 C37.065533,36.6104126 37.0798146,36.6435202 37.0921488,36.6681886 L37.0999388,36.6915586 C37.1648556,36.8655356 37.2297724,37.0447059 37.3011809,37.2693179 C37.3245509,37.3290414 37.3453243,37.3946073 37.3693435,37.4686124 L37.3836252,37.5127558 C37.4031002,37.5776726 37.4206277,37.6425894 37.4401028,37.7016637 L14.1245926,37.7016637 C13.936334,36.4169606 15.2125978,35.55941 16.3882407,35.0517608 C19.9060809,33.5340065 21.2699824,34.3720821 22.7117841,35.2607928 C23.6571496,35.9603461 24.7915161,36.3585282 25.9667114,36.4033281 C26.5757206,36.4075323 27.1839299,36.3584411 27.7843811,36.2566162 C28.4749308,36.1423925 29.050443,35.6651143 29.2904504,35.0076174 C29.5313964,34.3600937 29.4048783,33.6329867 28.9593748,33.1049066 C27.9642006,31.9117362 26.839842,31.581959 25.5376114,31.2008975 C24.9994514,31.0431497 24.3892336,30.8646286 23.7199417,30.6043123 C22.5962322,30.1687207 21.995752,29.5396771 22.1106547,28.9216694 C22.2946366,28.3234239 22.8633292,27.9281263 23.4881888,27.9641469 C24.8900953,28.0079655 26.2309416,27.3897238 27.1079483,26.2951365 L27.1196333,26.2990315 C27.4864131,26.455481 27.8402096,26.6236154 28.186216,26.8021366 L28.6951635,27.0676462 C28.8561572,27.1552839 29.0242916,27.2500624 29.1846361,27.3428933 L29.1839869,27.3428933 Z M19.4750335,1.34826778 C23.4168858,1.35291809 26.6112288,4.54726109 26.6158791,8.4891134 C26.6158791,12.6437872 21.1979248,20.5545458 19.4750335,22.965555 C17.751493,20.5545458 12.3341879,12.6470331 12.3341879,8.4891134 C12.3388382,4.54726109 15.5331812,1.35291809 19.4750335,1.34826778 Z M19.4750335,24.718308 C21.6328725,24.7141028 23.7758206,25.0756142 25.8128586,25.7874873 C25.1862888,26.3788504 24.349259,26.6951033 23.4881888,26.6658113 C22.2400222,26.6292273 21.135847,27.4693958 20.8382859,28.6821265 C20.7480515,29.1625106 20.6565189,30.8075018 23.2518917,31.8150102 C23.9711696,32.0948015 24.6093015,32.2817618 25.17213,32.4466505 C26.4055488,32.8082369 27.2209035,33.0464815 27.9635515,33.934543 C28.1112744,34.1073566 28.1535339,34.3467441 28.07391,34.5596916 C27.9924111,34.7829324 27.7954404,34.943796 27.5604183,34.979054 C27.0338441,35.0672041 26.5005951,35.1093427 25.9667114,35.1049925 C25.0330403,35.0530245 24.1364217,34.7221914 23.3927611,34.1552601 C21.8094409,33.1815084 20.0125444,32.0727298 15.8740998,33.8598887 C13.1560343,35.0283907 12.7477078,36.646766 12.8269062,37.7016637 L6.85456263,37.7016637 C6.66026084,37.0712606 6.56885395,36.4136571 6.58385966,35.7541603 C6.58205503,34.1925917 5.91023202,32.7068747 4.73892482,31.6741408 C8.3587464,27.2622779 13.7682347,24.7088565 19.4750335,24.718308 Z M1.9001141,36.5643217 C1.98255841,36.3423063 2.07084523,36.1150976 2.1500437,35.9333306 L2.19678378,35.8327096 L2.20132795,35.8242704 L2.20132795,35.8190771 C2.27728059,35.6373101 2.35907573,35.4581398 2.45125755,35.2822153 C2.46553924,35.253652 2.4765751,35.2283344 2.49215512,35.1984727 C2.55493299,35.0517112 2.62647029,34.9088534 2.70638049,34.7706711 C2.71806551,34.7492486 2.72910136,34.7278261 2.73883888,34.7057543 C2.76934977,34.6356442 2.80375566,34.5707274 2.85244324,34.4882831 C2.86088242,34.4740014 2.86997077,34.4603689 2.87581328,34.4493331 C2.90697334,34.3883113 2.94073006,34.325342 2.97513595,34.2636711 C3.04719358,34.1338375 3.12314621,34.004004 3.20753802,33.8605379 L3.3107557,33.6833151 C3.46915264,33.431438 3.62754958,33.1795609 3.79503486,32.9354738 C3.84696829,32.8575737 3.89955088,32.781621 3.95278264,32.7056684 C4.80467041,33.4899509 5.28760875,34.5962331 5.28357659,35.7541603 C5.27585801,36.4099816 5.35000314,37.0642034 5.50429364,37.7016637 L1.51385927,37.7016637 L1.64693867,37.2608787 C1.72354047,37.02588 1.80663394,36.8032155 1.9001141,36.5643217 Z" id="Shape" fill-rule="nonzero"></path>
                            <path d="M20.1242013,6.54161005 C20.1242013,6.18308458 19.833559,5.89244226 19.4750335,5.89244226 C18.0409316,5.89244226 16.8783624,7.05501153 16.8783624,8.4891134 C16.8783624,8.84763887 17.1690047,9.13828118 17.5275302,9.13828118 C17.8860556,9.13828118 18.1766979,8.84763887 18.1766979,8.4891134 C18.1766979,7.77206247 18.7579826,7.19077783 19.4750335,7.19077783 C19.833559,7.19077783 20.1242013,6.90013551 20.1242013,6.54161005 Z" id="Path"></path>
                        </g>
                    </g>
                </g>
            </g>
        </g>
    </g>
</svg>