<?xml version="1.0" encoding="UTF-8"?>
<svg width="30px" height="25px" viewBox="0 0 30 25" version="1.1" xmlns="http://www.w3.org/2000/svg" xmlns:xlink="http://www.w3.org/1999/xlink">
    <!-- Generator: Sketch 52.4 (67378) - http://www.bohemiancoding.com/sketch -->
    <title>mission</title>
    <desc>Created with Sketch.</desc>
    <g id="Quienes-somos" stroke="none" stroke-width="1" fill="none" fill-rule="evenodd">
        <g id="Quienes_Somos" transform="translate(-190.000000, -1091.000000)" fill="#4A4A4A" fill-rule="nonzero">
            <g id="Menarini-España" transform="translate(167.000000, 425.000000)">
                <g id="Misión-y-Visión" transform="translate(3.000000, 427.000000)">
                    <g id="Group-11" transform="translate(20.000000, 238.000000)">
                        <g id="Group-16">
                            <g id="mission" transform="translate(0.000000, 1.000000)">
                                <path d="M18.854106,0.743208661 C18.854106,0.335433071 18.5206291,0.00501968504 18.1090728,0.00501968504 L10.2163907,0.00501968504 C9.80483444,0.00501968504 9.47135762,0.335433071 9.47135762,0.743208661 L9.47135762,5.43681102 C9.47135762,5.84458661 9.80483444,6.175 10.2163907,6.175 L17.3640397,6.175 L17.3640397,8.26023622 L10.2163907,15.3444882 L8.37546358,13.519685 C8.21940397,13.3650591 8.0010596,13.2872047 7.78241722,13.3062992 C7.56258278,13.325689 7.36271523,13.4406496 7.23675497,13.6201772 L0.133311258,23.7422244 C-0.0250331126,23.967815 -0.0437086093,24.2619094 0.0848344371,24.5055118 C0.213278146,24.7492126 0.467781457,24.9017717 0.74513245,24.9017717 L29.1592053,24.9017717 C29.16,24.9018701 29.1607947,24.9018701 29.1611921,24.9017717 C29.5727483,24.9017717 29.9062252,24.5713583 29.9062252,24.1635827 C29.9062252,23.9880906 29.8444371,23.8268701 29.7412252,23.7001969 L18.854106,8.33267717 L18.854106,0.743208661 Z M10.9614238,4.69862205 L10.9614238,1.48139764 L17.3640397,1.48139764 L17.3640397,4.69862205 L10.9614238,4.69862205 Z M2.1705298,23.4255906 L7.95149007,15.1878937 L9.68940397,16.9106299 C9.82917219,17.0490157 10.0187086,17.1268701 10.2163907,17.1268701 C10.4139735,17.1268701 10.6035099,17.0490157 10.7432781,16.9106299 L18.0089404,9.70935039 L27.7259603,23.4255906 L2.1705298,23.4255906 Z" id="Shape"></path>
                            </g>
                        </g>
                    </g>
                </g>
            </g>
        </g>
    </g>
</svg>