<?xml version="1.0" encoding="UTF-8"?>
<svg width="41px" height="31px" viewBox="0 0 41 31" version="1.1" xmlns="http://www.w3.org/2000/svg" xmlns:xlink="http://www.w3.org/1999/xlink">
    <!-- Generator: Sketch 52.4 (67378) - http://www.bohemiancoding.com/sketch -->
    <title>team</title>
    <desc>Created with Sketch.</desc>
    <g id="Quienes-somos" stroke="none" stroke-width="1" fill="none" fill-rule="evenodd">
        <g id="Quienes_Somos" transform="translate(-171.000000, -1551.000000)" fill="#00a7b5">
            <g id="Menarini-España" transform="translate(167.000000, 425.000000)">
                <g id="Valores" transform="translate(4.000000, 1059.000000)">
                    <g id="Group-4" transform="translate(0.000000, 67.000000)">
                        <g id="team">
                            <path d="M14.0534094,27.2684541 C13.7223723,27.2684541 13.4539942,27.5340102 13.4539942,27.8615663 L13.4539942,30.3972398 C13.4539942,30.7247959 13.7223723,30.990352 14.0534094,30.990352 C14.3844464,30.990352 14.6528246,30.7247959 14.6528246,30.3972398 L14.6528246,27.8615663 C14.6528246,27.5340102 14.3844464,27.2684541 14.0534094,27.2684541 Z" id="Path"></path>
                            <path d="M26.8666686,27.2684541 C26.5356316,27.2684541 26.2672534,27.5340102 26.2672534,27.8615663 L26.2672534,30.3972398 C26.2672534,30.7247959 26.5356316,30.990352 26.8666686,30.990352 C27.1977057,30.990352 27.4660838,30.7247959 27.4660838,30.3972398 L27.4660838,27.8615663 C27.4660838,27.5340102 27.1977057,27.2684541 26.8666686,27.2684541 Z" id="Path"></path>
                            <path d="M9.19606823,14.6525612 C7.8041462,13.9639184 5.19445224,13.9560102 5.084,13.9560102 C4.75304288,13.9560102 4.48474464,14.2214082 4.48466472,14.5489643 C4.4845848,14.8764413 4.75280312,15.1420765 5.08384016,15.1422347 C5.75822222,15.1426301 7.71511306,15.2460689 8.65995127,15.7135204 C8.74602729,15.7561454 8.83745809,15.7762321 8.92753021,15.7762321 C9.14739571,15.7762321 9.35910916,15.6560281 9.46412671,15.4482806 C9.61222222,15.1552832 9.49217934,14.7990204 9.19606823,14.6525612 Z" id="Path"></path>
                            <path d="M3.16203509,26.0006173 C2.83099805,26.0006173 2.56261988,26.2661735 2.56261988,26.5937296 L2.56261988,30.3973189 C2.56261988,30.724875 2.83099805,30.9904311 3.16203509,30.9904311 C3.49307212,30.9904311 3.76145029,30.724875 3.76145029,30.3973189 L3.76145029,26.5937296 C3.76145029,26.2662526 3.49315205,26.0006173 3.16203509,26.0006173 Z" id="Path"></path>
                            <path d="M39.5262378,23.7855408 L37.098846,22.5847653 C37.0847797,22.5778061 37.0759883,22.5637296 37.0759883,22.5482296 L37.0761481,21.3410485 C38.072616,20.6621327 38.7779279,19.5888367 38.9543957,18.3292245 C39.4025984,17.5628444 39.638768,16.6972168 39.638768,15.8170383 C39.638768,14.175699 38.8400273,12.7156939 37.60723,11.7969235 C37.6794795,11.5588087 37.7168031,11.3131811 37.7168031,11.0625714 C37.7168031,9.51209694 36.2982671,8.25066582 34.554768,8.25066582 C32.811269,8.25066582 31.3927329,9.51209694 31.3927329,11.0625714 C31.3927329,11.3134974 31.4296569,11.5592041 31.5019064,11.7971607 C30.7668635,12.3450383 30.187269,13.085875 29.8383294,13.9423291 C29.6897544,12.4975867 29.5350253,10.7896607 29.3866101,8.800125 C29.1908012,6.17508929 28.236692,3.95827296 26.6275419,2.38945153 C25.0306199,0.832492347 22.8979006,0.00956887755 20.460039,0.00956887755 C18.0221774,0.00956887755 15.8894581,0.832492347 14.2926959,2.38937245 C12.6835458,3.95827296 11.7294366,6.17508929 11.5336277,8.80004592 C11.4815984,9.49699235 11.4288499,10.1575612 11.3758616,10.7863393 L5.72473489,10.7863393 C3.62790058,10.7863393 1.92196491,12.4743367 1.92196491,14.5491224 L1.92196491,14.5844719 C1.92196491,15.0676607 2.03737232,15.5515612 2.25579922,15.9837423 L2.56261988,16.5910102 L2.56261988,17.5593648 C2.56261988,19.094023 3.32691423,20.4710714 4.4845848,21.2997679 L4.4845848,22.1563801 C4.4845848,22.2662245 4.41001754,22.3639694 4.30332164,22.3941786 L1.82869591,23.0938138 C0.751986355,23.3981199 0,24.3845842 0,25.4925969 L0,30.3973189 C0,30.724875 0.268378168,30.9904311 0.599415205,30.9904311 C0.930452242,30.9904311 1.19883041,30.724875 1.19883041,30.3973189 L1.19883041,25.4925969 C1.19883041,24.9113469 1.59332554,24.3939158 2.15805458,24.23425 L4.63276023,23.5346148 C4.72203314,23.5093878 4.80683041,23.4751454 4.88755166,23.4344974 L6.40662963,24.937602 L6.40662963,30.3973189 C6.40662963,30.724875 6.6750078,30.9904311 7.00604483,30.9904311 C7.33708187,30.9904311 7.60546004,30.724875 7.60546004,30.3973189 L7.60546004,24.937602 L9.13516764,23.4239796 C9.33960819,23.523227 9.54332943,23.5809566 9.69262378,23.6231862 L10.300271,23.7949515 C9.47683431,24.3743036 8.96932943,25.31925 8.96932943,26.3439107 L8.96932943,30.3971607 C8.96932943,30.7247168 9.2377076,30.990273 9.56874464,30.990273 C9.89978168,30.990273 10.1681598,30.7247168 10.1681598,30.3971607 L10.1681598,26.3439107 C10.1681598,25.5750791 10.6274717,24.8775791 11.3382982,24.5669464 L14.7653548,23.0692194 C15.8392671,25.197227 18.0337661,26.5528444 20.4601189,26.5528444 C22.8955029,26.5528444 25.0826491,25.2002321 26.155922,23.0696939 L29.5819396,24.5669464 C30.2927661,24.8775791 30.752078,25.5750791 30.752078,26.3439107 L30.752078,30.3971607 C30.752078,30.7247168 31.0204561,30.990273 31.3514932,30.990273 C31.6825302,30.990273 31.9509084,30.7247168 31.9509084,30.3971607 L31.9509084,26.3439107 C31.9509084,25.5852015 31.6722203,24.8704617 31.1938869,24.3148342 L32.1215419,23.8559235 L32.8179025,24.5107194 C33.3049474,24.9687602 33.9297778,25.1976224 34.554848,25.1976224 C35.1796784,25.1976224 35.8048285,24.968602 36.2917135,24.5107194 L36.9879942,23.8560026 L38.9902008,24.8465 C39.4412008,25.0695893 39.7213275,25.5181403 39.7213275,26.0170663 L39.7213275,30.3972398 C39.7213275,30.7247959 39.9897057,30.990352 40.3207427,30.990352 C40.6517797,30.990352 40.9201579,30.7247959 40.9201579,30.3972398 L40.9201579,26.0170663 C40.920078,25.0660306 40.3859591,24.2109209 39.5262378,23.7855408 Z M34.5546881,9.43681122 C35.637152,9.43681122 36.5178928,10.166102 36.5178928,11.0624923 C36.5178928,11.1000561 36.5148558,11.1373036 36.5118187,11.1744719 C35.9090468,10.9247321 35.2479318,10.7863393 34.5546881,10.7863393 C33.8615244,10.7863393 33.2004893,10.9247321 32.5978772,11.1743929 C32.5947602,11.1372245 32.5914834,11.1000561 32.5914834,11.0624923 C32.5914834,10.166102 33.4722242,9.43681122 34.5546881,9.43681122 Z M7.00612476,23.8532347 L5.64025731,22.5017296 C5.66846979,22.3903827 5.68357505,22.2745281 5.68357505,22.156301 L5.68357505,21.9060867 C6.06064717,22.0285842 6.45833918,22.1012602 6.8698577,22.1134388 C6.91597271,22.1148622 6.96184795,22.1154949 7.00780312,22.1154949 C7.46239961,22.1154949 7.90620663,22.0475638 8.32851462,21.917949 L8.32851462,22.1560638 C8.32851462,22.2847296 8.3418616,22.4014541 8.36559844,22.5080561 L7.00612476,23.8532347 Z M6.90582261,20.9276097 C5.17199415,20.8762857 3.76145029,19.3651939 3.76145029,17.5593648 L3.76145029,16.4509566 C3.76145029,16.3589056 3.73979142,16.2680408 3.69815205,16.1857168 L3.32803314,15.4532628 C3.19248538,15.1848597 3.12079532,14.8845077 3.12079532,14.5844719 L3.12079532,14.5491224 C3.12079532,13.1284209 4.28893567,11.9725638 5.72473489,11.9725638 L10.8913743,11.9725638 L10.8913743,14.4347704 C10.8913743,14.8326301 10.796347,15.2311224 10.6164425,15.5869898 L10.3139376,16.1856378 C10.2722982,16.2680408 10.2506394,16.3588265 10.2506394,16.4508776 L10.2506394,17.7187143 C10.2506394,18.5944643 9.90074074,19.412801 9.26536062,20.0228367 C8.63030019,20.6325561 7.79183821,20.9541811 6.90582261,20.9276097 Z M11.915575,23.0178954 L10.0219825,22.4825918 C9.52726511,22.3427755 9.52734503,22.2882092 9.52734503,22.1562219 L9.52750487,21.3390714 C9.72882846,21.201074 9.92080117,21.0466276 10.100386,20.8741505 C10.2212281,20.7581378 10.3337583,20.6360357 10.4392554,20.5095051 C10.5355614,20.7027806 10.6831774,20.8716199 10.8739513,20.993801 C11.3544425,21.3016658 12.2611579,21.8130867 13.594577,22.2840969 L11.915575,23.0178954 Z M20.460039,25.366699 C18.5097817,25.366699 16.7435049,24.2880255 15.8626842,22.5897474 L16.735193,22.2084158 C17.4161287,21.9108316 17.8560994,21.2426709 17.8560994,20.5061046 L17.8560994,19.0829515 C18.6614737,19.4031531 19.5402963,19.5797423 20.460039,19.5797423 C21.3797817,19.5797423 22.2585244,19.4031531 23.0639786,19.0829515 L23.0639786,20.5061046 C23.0639786,21.2426709 23.5039493,21.9109107 24.184885,22.2084158 L25.0572339,22.5896684 C24.1770526,24.2898444 22.4175692,25.366699 20.460039,25.366699 Z M25.6576881,21.5552806 L24.6692125,21.1232577 C24.4223333,21.0153903 24.262809,20.7730842 24.262809,20.5060255 L24.262809,18.4669056 C26.1890897,17.2303061 27.4661637,15.0836352 27.4661637,12.6472883 L27.4661637,11.5351633 C27.4661637,10.8123571 27.1555867,10.1305153 26.6140351,9.66456633 C25.4096901,8.62812245 22.6834698,6.81944643 17.9570409,6.35175765 C17.6284815,6.31917602 17.3338889,6.55689541 17.300961,6.88294898 C17.2680331,7.20892347 17.5083587,7.49954847 17.8377973,7.5321301 C22.2339084,7.96707908 24.7304327,9.61569388 25.8273626,10.5596913 C26.1070097,10.8002577 26.2673333,11.1558878 26.2673333,11.5351633 L26.2673333,12.6472883 C26.2673333,15.8156939 23.6621949,18.3934388 20.4601189,18.3934388 C17.2580429,18.3934388 14.6529045,15.8156939 14.6529045,12.6472883 L14.6529045,12.1511301 C14.6529045,11.9232168 14.7806199,11.7144413 14.9944912,11.5925765 C15.7439201,11.1656148 16.7322359,10.3746403 17.1848343,9.03128061 C17.2895322,8.72056888 17.1197778,8.3846301 16.8056842,8.28103316 C16.4917505,8.17743622 16.1521618,8.34540561 16.0474639,8.65619643 C15.7140292,9.64598214 14.9654795,10.2402806 14.3962749,10.5645944 C13.8150819,10.8957092 13.4539942,11.5036888 13.4539942,12.1512092 L13.4539942,12.6473673 C13.4539942,15.0837934 14.7309883,17.2303852 16.6573489,18.4669847 L16.6573489,20.5061046 C16.6573489,20.7731633 16.4978246,21.0153903 16.2509454,21.1233367 L15.2623899,21.5553597 C13.3317934,21.0442551 12.0947602,20.3628087 11.5254756,19.9981633 C11.5141267,19.9908878 11.5077329,19.9825842 11.5109298,19.9638418 C11.7200058,18.7409235 12.2572417,15.2134872 12.7292612,8.88743112 C12.9033314,6.55333673 13.7349201,4.59843878 15.134115,3.23428061 C16.5019805,1.90072704 18.3436238,1.19579337 20.460039,1.19579337 C22.5764542,1.19579337 24.4180975,1.90072704 25.785963,3.23428061 C27.1851579,4.59843878 28.0167466,6.55325765 28.1908967,8.88735204 C28.6628363,15.2131709 29.2000721,18.7407653 29.4092281,19.9637628 C29.412425,19.9825842 29.4060312,19.9908878 29.3946023,19.9981633 C28.8245185,20.3632832 27.5874854,21.0443342 25.6576881,21.5552806 Z M32.033308,22.5481505 C32.033308,22.5637296 32.0245965,22.577727 32.0105302,22.5846862 L30.1325224,23.5138163 C30.1102242,23.5034566 30.0888051,23.4918316 30.0662671,23.4819464 L27.3256608,22.2842551 C28.6584405,21.8134031 29.5649961,21.3022194 30.0461267,20.9939592 C30.4594834,20.7291148 30.6735146,20.2471913 30.5912749,19.7659796 C30.5867992,19.7396454 30.581924,19.7107806 30.5771287,19.6823112 C30.9142398,20.3530816 31.418308,20.922074 32.033308,21.3410485 L32.033308,22.5481505 Z M35.4656394,23.6509439 C34.9548577,24.1314439 34.1545185,24.1313648 33.643577,23.6509439 L33.0864405,23.1271071 C33.1804288,22.9528112 33.2320585,22.7551071 33.2320585,22.5481505 L33.2320585,21.917 C33.6506901,22.0455077 34.0947368,22.1154158 34.5546082,22.1154158 C35.0143996,22.1154158 35.4585263,22.0455077 35.877078,21.917 L35.8769981,22.5479923 C35.8769981,22.7551071 35.9286277,22.9528112 36.0226959,23.1271862 L35.4656394,23.6509439 Z M34.5546881,20.9291122 C32.8950273,20.9291122 31.5088596,19.6993929 31.3303938,18.0686505 C31.3208031,17.9812653 31.2917914,17.8971224 31.2452768,17.8221531 C30.8685244,17.2150434 30.6694386,16.5216556 30.6694386,15.8168801 C30.6694386,13.697176 32.4122982,11.9725638 34.5546881,11.9725638 C36.6969981,11.9725638 38.4399376,13.697176 38.4399376,15.8169592 C38.4399376,16.225574 38.3725634,16.6303138 38.2428499,17.0167066 C36.5408304,15.3057755 33.5467115,14.6352423 33.4023723,14.6037679 C33.2251053,14.5650969 33.0395263,14.6081173 32.8979045,14.7206505 C32.7563626,14.8332628 32.673963,15.0032883 32.673963,15.1829617 C32.673963,15.1868367 32.6466296,15.5982985 32.2088967,16.0314286 C31.9748051,16.2630587 31.9748051,16.6386173 32.2088967,16.8701684 C32.4429883,17.1017985 32.822538,17.1017985 33.0565497,16.8701684 C33.3936608,16.536602 33.5917076,16.1980536 33.7079142,15.9121735 C34.7165302,16.2086505 36.8099279,16.9573954 37.7494113,18.2716531 C37.4827914,19.8002219 36.144577,20.9291122 34.5546881,20.9291122 Z" id="Shape" fill-rule="nonzero"></path>
                            <path d="M37.7580429,26.7843163 C37.4270058,26.7843163 37.1586277,27.0498724 37.1586277,27.3774286 L37.1586277,30.3973189 C37.1586277,30.724875 37.4270058,30.9904311 37.7580429,30.9904311 C38.0890799,30.9904311 38.3574581,30.724875 38.3574581,30.3973189 L38.3574581,27.3774286 C38.3574581,27.0498724 38.0890799,26.7843163 37.7580429,26.7843163 Z" id="Path"></path>
                        </g>
                    </g>
                </g>
            </g>
        </g>
    </g>
</svg>