<?xml version="1.0" encoding="UTF-8"?>
<!DOCTYPE svg PUBLIC "-//W3C//DTD SVG 1.1//EN" "http://www.w3.org/Graphics/SVG/1.1/DTD/svg11.dtd">
<!-- Creator: CorelDRAW X7 -->
<svg xmlns="http://www.w3.org/2000/svg" xml:space="preserve" width="210mm" height="297mm" version="1.1" style="shape-rendering:geometricPrecision; text-rendering:geometricPrecision; image-rendering:optimizeQuality; fill-rule:evenodd; clip-rule:evenodd"
viewBox="0 0 21000 29700"
 xmlns:xlink="http://www.w3.org/1999/xlink">
 <defs>
  <style type="text/css">
   <![CDATA[
    .str0 {stroke:white;stroke-width:7.62}
    .fil1 {fill:none}
    .fil0 {fill:white}
   ]]>
  </style>
 </defs>
 <g id="Capa_x0020_1">
  <metadata id="CorelCorpID_0Corel-Layer"/>
  <g>
   <path class="fil0" d="M1302 2644c-219,0 -397,178 -397,397 0,196 143,359 331,391 60,8 83,6 114,2 196,-23 349,-190 349,-393 0,-219 -178,-397 -397,-397l0 0zm-65 660c38,3 75,4 112,2l0 -214 93 0 14 -111 -107 0 0 -48c0,-26 9,-44 53,-44l58 0 0 -111c-10,-1 -44,-3 -84,-3 -82,0 -139,72 -139,149l0 57 -93 0 0 111 93 0 0 212z"/>
   <path id="1" class="fil1 str0" d="M1302 2644c-219,0 -397,178 -397,397 0,196 143,359 331,391 60,8 83,6 114,2 196,-23 349,-190 349,-393 0,-219 -178,-397 -397,-397m-65 660c38,3 75,4 112,2l0 -214 93 0 14 -111 -107 0 0 -48c0,-26 9,-44 53,-44l58 0 0 -111c-10,-1 -44,-3 -84,-3 -82,0 -139,72 -139,149l0 57 -93 0 0 111 93 0 0 212z"/>
  </g>
 </g>
</svg>
