<?xml version="1.0" encoding="UTF-8"?>
<svg width="30px" height="30px" viewBox="0 0 30 30" version="1.1" xmlns="http://www.w3.org/2000/svg" xmlns:xlink="http://www.w3.org/1999/xlink">
    <!-- Generator: Sketch 58 (84663) - https://sketch.com -->
    <title>logo_instagram</title>
    <desc>Created with Sketch.</desc>
    <g id="V.1" stroke="none" stroke-width="1" fill="none" fill-rule="evenodd">
        <g id="Rediseño_home" transform="translate(-1133.000000, -16.000000)">
            <g id="logo_instagram" transform="translate(1133.000000, 16.000000)">
                <circle id="Oval" fill="#FFFFFF" cx="15" cy="15" r="15"></circle>
                <g id="87390" transform="translate(6.000000, 6.000000)" fill="#000000" fill-rule="nonzero">
                    <path d="M13.0325443,0 L4.96724279,0 C2.22830678,0 0,2.22841324 0,4.96734926 L0,13.0326507 C0,15.7716932 2.22830678,18 4.96724279,18 L13.0325443,18 C15.7716932,18 18,15.7715868 18,13.0326507 L18,4.96734926 C18,2.22841324 15.7716932,0 13.0325443,0 Z M16.4030592,13.0326507 C16.4030592,14.8910814 14.8910814,16.4029528 13.0326507,16.4029528 L4.96724279,16.4029528 C3.10891862,16.4029528 1.59704724,14.8910814 1.59704724,13.0326507 L1.59704724,4.96734926 C1.59704724,3.10902509 3.10891862,1.59704724 4.96724279,1.59704724 L13.0325443,1.59704724 C14.8909749,1.59704724 16.4030592,3.10902509 16.4030592,4.96734926 L16.4030592,13.0326507 L16.4030592,13.0326507 Z" id="Shape"></path>
                    <path d="M8.5,5 C6.01866263,5 4,7.01870897 4,9.5001033 C4,11.9813943 6.01866263,14 8.5,14 C10.9813374,14 13,11.9813943 13,9.5001033 C13,7.01870897 10.9813374,5 8.5,5 Z M8.5,12.4503811 C6.87314923,12.4503811 5.54948006,11.1268881 5.54948006,9.5 C5.54948006,7.87300859 6.87304593,6.54941233 8.5,6.54941233 C10.1269541,6.54941233 11.4505199,7.87300859 11.4505199,9.5 C11.4505199,11.1268881 10.1268508,12.4503811 8.5,12.4503811 Z" id="Shape"></path>
                    <path d="M13,4 C12.7372727,4 12.4791818,4.10636364 12.2936364,4.29272727 C12.1071818,4.47818182 12,4.73636364 12,5 C12,5.26281818 12.1072727,5.52090909 12.2936364,5.70727273 C12.4790909,5.89272727 12.7372727,6 13,6 C13.2636364,6 13.5209091,5.89272727 13.7072727,5.70727273 C13.8936364,5.52090909 14,5.26272727 14,5 C14,4.73636364 13.8936364,4.47818182 13.7072727,4.29272727 C13.5218182,4.10636364 13.2636364,4 13,4 Z" id="Path"></path>
                </g>
            </g>
        </g>
    </g>
</svg>