<?xml version="1.0" encoding="UTF-8"?>
<svg width="32px" height="31px" viewBox="0 0 32 31" version="1.1" xmlns="http://www.w3.org/2000/svg" xmlns:xlink="http://www.w3.org/1999/xlink">
    <!-- Generator: Sketch 52.4 (67378) - http://www.bohemiancoding.com/sketch -->
    <title>logo_youtube</title>
    <desc>Created with Sketch.</desc>
    <defs>
        <circle id="path-1" cx="15.5" cy="15.5" r="15.5"></circle>
    </defs>
    <g id="Diseño-home-v1" stroke="none" stroke-width="1" fill="none" fill-rule="evenodd">
        <g id="Footer" transform="translate(-721.000000, -3968.000000)">
            <g id="footer" transform="translate(0.000000, 3779.000000)">
                <g id="logo_youtube" transform="translate(721.476923, 189.000000)">
                    <mask id="mask-2" fill="white">
                        <use xlink:href="#path-1"></use>
                    </mask>
                    <use id="Mask" fill="#FFFFFF" xlink:href="#path-1"></use>
                    <path d="M6.31995192,9.08895649 C5.33140055,9.08895649 4.52307692,9.88309789 4.52307692,10.8543074 L4.52307692,21.0703161 C4.52307692,22.0415477 5.33140055,22.8433425 6.31995192,22.8433425 L24.7262019,22.8433425 C25.7147534,22.8433425 26.5230769,22.0415477 26.5230769,21.0703161 L26.5230769,10.8543074 C26.5230769,9.88309789 25.7147534,9.08895649 24.7262019,9.08895649 L6.31995192,9.08895649 Z M6.31995192,10.0714126 L24.7262019,10.0714126 C25.1780507,10.0714126 25.5230769,10.410387 25.5230769,10.8543074 L25.5230769,10.8619828 L16.1558894,17.2632986 C15.8541492,17.4699337 15.1920047,17.4699337 14.8902644,17.2632986 L5.52307692,10.8619828 L5.52307692,10.8543074 C5.52307692,10.410387 5.86810317,10.0714126 6.31995192,10.0714126 Z M5.52307692,12.0516758 L11.0543269,15.835667 L5.52307692,19.4661495 L5.52307692,12.0516758 Z M25.5230769,12.0516758 L25.5230769,19.4661495 L19.9918269,15.835667 L25.5230769,12.0516758 Z M11.9449519,16.4420267 L14.3199519,18.0692196 C15.0336672,18.5579425 16.0124867,18.5579425 16.7262019,18.0692196 L19.1012019,16.4420267 L25.5230769,20.648167 L25.5230769,21.0703161 C25.5230769,21.5142389 25.1780507,21.8608863 24.7262019,21.8608863 L6.31995192,21.8608863 C5.86810317,21.8608863 5.52307692,21.5142389 5.52307692,21.0703161 L5.52307692,20.648167 L11.9449519,16.4420267 Z" id="Shape" stroke="#000000" fill="#000000" fill-rule="nonzero" mask="url(#mask-2)"></path>
                </g>
            </g>
        </g>
    </g>
</svg>